<svg width="26" height="20" viewBox="0 0 26 20" fill="none" xmlns="http://www.w3.org/2000/svg">
<path d="M13.0003 4.49969C16.2203 4.49969 18.8337 6.73969 18.8337 9.49969C18.8337 10.0097 18.717 10.4997 18.5537 10.9597L22.1237 14.0197C23.7453 12.7897 25.0287 11.2497 25.8337 9.48969C23.8153 5.10969 18.8337 1.99969 13.0003 1.99969C11.5187 1.99969 10.0953 2.19969 8.75366 2.56969L11.2853 4.73969C11.8337 4.59969 12.4053 4.49969 13.0003 4.49969ZM2.16199 1.15969C1.70699 1.54969 1.70699 2.17969 2.16199 2.56969L4.46033 4.53969C2.57033 5.82969 1.06533 7.52969 0.166992 9.49969C2.18533 13.8897 7.16699 16.9997 13.0003 16.9997C14.7737 16.9997 16.4653 16.6997 18.0287 16.1797L21.202 18.8997C21.657 19.2897 22.392 19.2897 22.847 18.8997C23.302 18.5097 23.302 17.8797 22.847 17.4897L3.81866 1.15969C3.36366 0.769688 2.61699 0.769688 2.16199 1.15969ZM13.0003 14.4997C9.78033 14.4997 7.16699 12.2597 7.16699 9.49969C7.16699 8.72969 7.37699 7.99969 7.73866 7.35969L9.57033 8.92969C9.53533 9.10969 9.50033 9.29969 9.50033 9.49969C9.50033 11.1597 11.0637 12.4997 13.0003 12.4997C13.2337 12.4997 13.4437 12.4697 13.6653 12.4297L15.497 13.9997C14.7387 14.3197 13.8987 14.4997 13.0003 14.4997ZM16.4653 9.16969C16.2903 7.76969 15.007 6.67969 13.3853 6.52969L16.4653 9.16969Z" fill="#D5D5D5"/>
</svg>
