<svg width="14" height="10" viewBox="0 0 14 10" fill="none" xmlns="http://www.w3.org/2000/svg">
<path d="M1 9.5H13C13.4125 9.5 13.75 9.1625 13.75 8.75C13.75 8.3375 13.4125 8 13 8H1C0.5875 8 0.25 8.3375 0.25 8.75C0.25 9.1625 0.5875 9.5 1 9.5ZM1 5.75H13C13.4125 5.75 13.75 5.4125 13.75 5C13.75 4.5875 13.4125 4.25 13 4.25H1C0.5875 4.25 0.25 4.5875 0.25 5C0.25 5.4125 0.5875 5.75 1 5.75ZM0.25 1.25C0.25 1.6625 0.5875 2 1 2H13C13.4125 2 13.75 1.6625 13.75 1.25C13.75 0.8375 13.4125 0.5 13 0.5H1C0.5875 0.5 0.25 0.8375 0.25 1.25Z" fill="#0092BC"/>
</svg>
