<svg width="24" height="24" viewBox="0 0 39 32" fill="none" xmlns="http://www.w3.org/2000/svg">
<path d="M19.5038 6.97414V0.0800781H0.750488V31.1034H38.257V6.97414H19.5038ZM8.2518 27.6563H4.50114V24.2093H8.2518V27.6563ZM8.2518 20.7623H4.50114V17.3152H8.2518V20.7623ZM8.2518 13.8682H4.50114V10.4212H8.2518V13.8682ZM8.2518 6.97414H4.50114V3.52711H8.2518V6.97414ZM15.7531 27.6563H12.0025V24.2093H15.7531V27.6563ZM15.7531 20.7623H12.0025V17.3152H15.7531V20.7623ZM15.7531 13.8682H12.0025V10.4212H15.7531V13.8682ZM15.7531 6.97414H12.0025V3.52711H15.7531V6.97414ZM34.5064 27.6563H19.5038V24.2093H23.2544V20.7623H19.5038V17.3152H23.2544V13.8682H19.5038V10.4212H34.5064V27.6563ZM30.7557 13.8682H27.0051V17.3152H30.7557V13.8682ZM30.7557 20.7623H27.0051V24.2093H30.7557V20.7623Z" fill="#0092BC"/>
</svg>
