<svg xmlns="http://www.w3.org/2000/svg" width="250" height="244" viewBox="0 0 250 244" fill="none">
  <rect opacity="0.2" y="85.6401" width="158.304" height="158.304" rx="24" fill="#9747FF"/>
  <rect opacity="0.2" x="91.6953" width="158.304" height="158.304" rx="27" fill="#379BEC"/>
  <path d="M71.7148 64.2732C71.7148 56.1417 71.7148 48.2698 71.7148 40.1383C87.8048 40.1383 103.808 40.1383 120.071 40.1383C120.071 33.9099 120.071 21.8857 120.071 21.8857L120.59 21.6262C120.59 21.6262 144.812 49.8269 157.182 64.2732C128.462 64.2732 100.175 64.2732 71.7148 64.2732ZM139.621 56.2283C135.729 51.73 128.722 43.512 128.722 43.512L128.203 43.7715C128.203 43.7715 128.203 46.5397 128.203 48.1833C112.026 48.1833 95.9363 48.1833 79.8463 48.1833C79.8463 50.9514 79.8463 53.5466 79.8463 56.1418C99.656 56.2283 119.379 56.2283 139.621 56.2283Z" fill="#379BEC"/>
  <path d="M99.3977 220.588C87.287 206.487 75.2628 192.387 62.8926 177.941C91.6123 177.941 119.899 177.941 148.36 177.941C148.36 185.986 148.36 193.944 148.36 202.076C132.27 202.076 116.266 202.076 100.003 202.076C100.003 208.304 100.003 214.273 100.003 220.328C99.8302 220.415 99.6572 220.501 99.3977 220.588ZM140.315 186.159C120.418 186.159 100.695 186.159 80.5396 186.159C84.3458 190.571 87.806 194.636 91.3527 198.789C91.5258 198.702 91.6988 198.616 91.8718 198.529C91.8718 197.058 91.8718 195.588 91.8718 193.944C108.135 193.944 124.138 193.944 140.228 193.944C140.315 191.263 140.315 188.754 140.315 186.159Z" fill="#379BEC"/>
  <path d="M111.94 24.1349C111.94 26.8165 111.94 29.2387 111.94 31.9203C109.259 31.9203 106.75 31.9203 104.068 31.9203C104.068 29.3252 104.068 26.8165 104.068 24.1349C106.664 24.1349 109.172 24.1349 111.94 24.1349Z" fill="#379BEC"/>
  <path d="M95.762 31.9203C93.0804 31.9203 90.5717 31.9203 87.9766 31.9203C87.9766 29.3251 87.9766 26.73 87.9766 24.0483C90.5717 24.0483 93.0804 24.0483 95.762 24.0483C95.762 26.73 95.762 29.1521 95.762 31.9203Z" fill="#379BEC"/>
  <path d="M71.8008 23.9618C74.4824 23.9618 76.9046 23.9618 79.4997 23.9618C79.4997 26.5569 79.4997 29.1521 79.4997 31.8338C76.9911 31.8338 74.4824 31.8338 71.8008 31.8338C71.8008 29.2386 71.8008 26.6434 71.8008 23.9618Z" fill="#379BEC"/>
  <path d="M116.006 218.252C113.324 218.252 110.902 218.252 108.307 218.252C108.307 215.657 108.307 213.148 108.307 210.38C110.729 210.38 113.324 210.38 116.006 210.38C116.006 212.975 116.006 215.484 116.006 218.252Z" fill="#379BEC"/>
  <path d="M124.398 210.38C126.994 210.38 129.502 210.38 132.184 210.38C132.184 212.889 132.184 215.484 132.184 218.166C129.675 218.166 127.167 218.166 124.398 218.166C124.398 215.571 124.398 213.062 124.398 210.38Z" fill="#379BEC"/>
  <path d="M148.446 218.252C145.764 218.252 143.255 218.252 140.66 218.252C140.66 215.657 140.66 213.062 140.66 210.38C143.255 210.38 145.764 210.38 148.446 210.38C148.446 212.975 148.446 215.484 148.446 218.252Z" fill="#379BEC"/>
  <path d="M91.1797 94.2039V149.74H51.9064V94.2039H91.1797ZM99.7437 85.5534H43.2559V158.304H99.7437V85.5534Z" fill="#379BEC"/>
  <path d="M164.191 94.2039V149.74H124.918V94.2039H164.191ZM172.755 85.5534H116.268V158.304H172.755V85.5534Z" fill="#379BEC"/>
</svg>