<svg width="21" height="21" viewBox="0 0 21 21" fill="none" xmlns="http://www.w3.org/2000/svg">
<rect x="0.376953" y="0.76709" width="19.6644" height="19.6644" rx="5" fill="#0092BC"/>
<path d="M6.73286 3.74658C4.54236 3.74658 2.76025 5.52869 2.76025 7.71918V14.0753C2.76025 16.2658 4.54236 18.048 6.73286 18.048H13.089C15.2795 18.048 17.0616 16.2658 17.0616 14.0753V7.71918C17.0616 5.52869 15.2795 3.74658 13.089 3.74658H6.73286ZM6.73286 5.33562H13.089C14.4032 5.33562 15.4726 6.40505 15.4726 7.71918V14.0753C15.4726 15.3895 14.4032 16.4589 13.089 16.4589H6.73286C5.41872 16.4589 4.3493 15.3895 4.3493 14.0753V7.71918C4.3493 6.40505 5.41872 5.33562 6.73286 5.33562ZM13.8835 6.13014C13.6728 6.13014 13.4707 6.21385 13.3217 6.36285C13.1727 6.51186 13.089 6.71394 13.089 6.92466C13.089 7.13538 13.1727 7.33747 13.3217 7.48647C13.4707 7.63548 13.6728 7.71918 13.8835 7.71918C14.0943 7.71918 14.2964 7.63548 14.4454 7.48647C14.5944 7.33747 14.6781 7.13538 14.6781 6.92466C14.6781 6.71394 14.5944 6.51186 14.4454 6.36285C14.2964 6.21385 14.0943 6.13014 13.8835 6.13014ZM9.91094 6.92466C7.72045 6.92466 5.93834 8.70677 5.93834 10.8973C5.93834 13.0878 7.72045 14.8699 9.91094 14.8699C12.1014 14.8699 13.8835 13.0878 13.8835 10.8973C13.8835 8.70677 12.1014 6.92466 9.91094 6.92466ZM9.91094 8.51371C11.2251 8.51371 12.2945 9.58313 12.2945 10.8973C12.2945 12.2114 11.2251 13.2808 9.91094 13.2808C8.5968 13.2808 7.52738 12.2114 7.52738 10.8973C7.52738 9.58313 8.5968 8.51371 9.91094 8.51371Z" fill="white"/>
</svg>
