<svg width="610" height="279" viewBox="0 0 610 279" fill="none" xmlns="http://www.w3.org/2000/svg">
<path d="M613.715 -40.2773H-1.14697V336.085H613.715V-40.2773Z" fill="#E8E8E8"/>
<path d="M-3.6147 33.2734L12.031 27.964L19.1269 24.8232L31.0253 26.5016L41.9599 32.3844L55.7693 39.3473L62.9815 46.4265L66.7621 59.0395L69.4625 74.8846V80.5347L64.3026 81.133L-5.65039 51.2291L-3.6147 33.2734Z" fill="#C8E1A9"/>
<path d="M113.815 59.721L123.662 70.2069L184.267 40.1867L188.671 33.9384L192.119 14.1631L183.951 20.7272L148.406 39.2229L118.377 54.3535L113.815 59.721Z" fill="#C8E1A9"/>
<path d="M283.343 -3.8916L272.417 32.3769L325.619 55.1933L338.589 61.076L351.792 17.6036L283.343 -3.8916Z" fill="#C8E1A9"/>
<path d="M307.48 -23.585L355.033 -3.89276C355.033 -3.89276 361.156 0.427885 361.04 2.9538C360.924 5.47972 360.683 13.4812 360.683 13.4812L338.39 7.27446L337.351 4.95626L333.712 3.11168L303.052 -6.53501L307.497 -23.585H307.48Z" fill="#C8E1A9"/>
<path d="M361.879 -2.64648L365.369 5.11407V17.1288L370.853 16.0819L374.675 4.31642L367.521 -2.00669L361.879 -2.64648Z" fill="#C8E1A9"/>
<path d="M361.048 23.9346L347.28 63.4021C347.28 63.4021 353.529 68.2046 354.168 68.1215C354.808 68.0385 356.171 64.6816 356.171 64.6816L363.616 65.0057L364.098 55.8825L373.628 29.2191L361.056 23.9346H361.048Z" fill="#C8E1A9"/>
<path d="M373.213 -44.3574L365.444 -16.0987C365.444 -16.0987 379.453 -2.77115 379.777 -2.60497C380.101 -2.43879 383.782 -1.26723 383.782 -1.26723L392.107 -28.5787L396.187 -23.2195L426.132 -12.6505L428.052 -11.695L429.855 -6.41047L430.453 0.876472V11.1214L443.299 14.6444L451.2 15.2842L456.352 10.3237L470.859 2.55488L485.757 -7.29122L515.221 -35.309L517.946 -44.3574H373.196H373.213Z" fill="#C8E1A9"/>
<path d="M569.279 -43.9998L567.235 -21.2997L562.79 7.76495L556.542 28.662L548.615 59.1641L540.813 83.6589L523.638 114.161L509.106 131.577L489.53 150.189L474.998 162.802L461.188 157.517L449.78 152.955L393.337 137.468L383.366 134.468L381.804 143.359L379.76 150.803L419.868 161.854L441.72 168.103L459.011 174.11L456.726 184.795L446.041 208.094L435.597 226.706L412.057 261.528L390.919 291.191L381.43 301.76L374.227 310.41L354.41 322.416L342.761 331.664L336.396 337.19L343.965 343.313L391.044 307.41L401.613 302.367L417.591 310.817L445.143 264.844L438.181 263.282C438.181 263.282 447.246 239.801 447.611 239.684C447.977 239.568 440.889 233.079 440.889 233.079L444.728 227.919L463.822 191.293L473.909 177.724L482.318 170.637L503.331 177.965L514.864 169.199L532.155 118.158L549.811 87.4145L563.022 37.8184L578.876 -26.551L575.993 -47.207L569.271 -43.9665L569.279 -43.9998Z" fill="#C8E1A9"/>
<path d="M589.461 -52.7656L582.615 -2.49651L564.243 68.2043L539.383 125.627L528.573 145.536L519.924 164.862L516.334 178.788L501.195 197.998C501.195 197.998 478.495 232.937 477.058 232.937C475.62 232.937 457.648 241.587 457.648 241.587L451.474 249.514L444.993 265.725L441.753 278.329L447.877 281.935L453.693 279.584L463.007 258.886L468.408 251.325L477.772 253.485L457.648 306.804L470.801 305.466L485.932 290.336L496.858 283.132L497.215 274.125L496.01 268.84L501.17 263.074L530.476 242.659L533.359 237.133L536.841 243.739L557.854 231.974L540.679 216.004L552.927 214.084L574.306 231.982L584.634 201.123L593.532 150.579L628.713 97.8673L632.319 7.41607L641.683 -52.749H589.444L589.461 -52.7656Z" fill="#C8E1A9"/>
<path d="M-9.55615 271.358L34.2735 265.351L44.4852 283.963C44.4852 283.963 38.8435 291.407 38.4779 291.532C38.1123 291.657 21.3033 302.94 21.3033 302.94L12.0554 309.189L0.888192 284.212L-2.11134 278.088L-8.23503 277.731L-9.55615 271.366V271.358Z" fill="#C8E1A9"/>
<path d="M229.343 115.282L222.795 140.417L250.157 147.887L256.721 126.483L255.441 124.248L229.343 115.282Z" fill="#C8E1A9"/>
<path d="M404.429 -42.4375L390.171 -41.7146L392.273 -36.372C392.356 -36.1559 393.037 -35.8568 393.22 -35.7405C393.893 -35.325 394.6 -34.9179 395.339 -34.6271C396.993 -33.9624 398.53 -34.3197 400.15 -34.8847C401.729 -35.4331 403.324 -35.9814 404.795 -36.7791C406.199 -37.5352 407.487 -38.5323 409.099 -38.8148C410.769 -39.1056 412.68 -39.4047 414.367 -39.1721C415.588 -39.0059 416.809 -38.9062 418.039 -38.7566C419.801 -38.5406 421.022 -38.2498 422.634 -37.394C426.282 -35.4663 428.716 -31.3451 431.292 -28.2624C431.79 -27.6642 432.53 -27.0576 432.879 -26.3597C433.984 -24.1744 434.026 -21.6236 434.05 -19.2306C434.075 -16.605 434.026 -13.9877 434.15 -11.3704C434.341 -7.31559 434.549 -3.25251 434.549 0.802252V8.96995L436.95 7.25V-10.2403L436.468 -22.1304V-32.6994C436.468 -33.763 436.153 -35.0841 436.585 -36.1061C437.133 -37.4023 439.701 -37.7596 440.88 -38.1252C441.578 -38.3412 442.393 -38.3661 443.024 -38.7982C443.415 -39.0641 443.705 -39.4712 444.021 -39.8119C444.262 -40.0778 445.425 -41.7146 445.766 -41.7063L404.437 -42.4292L404.429 -42.4375ZM430.378 -38.2996C427.885 -37.4521 426.016 -37.7928 423.739 -38.9394C422.592 -39.5128 421.454 -40.0362 420.316 -40.5181H432.688L432.389 -39.1139C432.389 -38.6985 430.677 -38.3994 430.386 -38.2996H430.378ZM433.818 -30.672L432.198 -33.198L431.325 -35.807L433.818 -36.4384V-30.672Z" fill="#A9C9FC"/>
<path d="M576.325 -44.9472L575.386 -41.9643L572.254 -10.0995L567.925 10.9553L556.234 56.9869L548.623 83.7251L538.777 102.462L526.446 120.874L508.914 137.526L478.894 165.709L470.087 178.838L458.554 197.408L446.464 217.341L437.74 232.472L427.57 248.242L413.237 268.815L396.428 293.634L387.945 303.879L373.337 315.727L351.443 333.101V337.987C351.443 337.987 357.708 339.832 358.032 339.832C358.356 339.832 364.389 335.511 364.389 335.511L387.463 318.378L398.522 306.787L409.091 291.241L421.18 274.108L430.628 262.259L442.8 265.06L442.401 267.619L427.587 288.831L415.896 309.163L411.334 319.491L403.407 339.823L409.008 340.704L412.207 337.098L415.572 324.768L419.095 314.921L427.661 301.469L439.028 283.696L444.794 275.047L452.804 257.274L454.242 252.555L458.006 249.356L466.414 243.107L479.144 233.103L491.15 220.698L495.072 218.139L511.964 190.761L520.53 177.874L523.97 164.023L530.293 146.649L540.779 127.671L551.83 108.693L560.239 89.4001L567.842 67.7802L573.126 49.1266L579.291 26.867L585.772 -2.03155L589.777 -26.3684L593.616 -44.0582L576.325 -44.9639V-44.9472ZM519.841 139.985C517.797 144.92 515.836 149.906 513.75 154.825C512.845 156.96 512.064 159.162 511.108 161.264C510.493 162.619 510.327 163.99 510.693 165.435C511.515 168.659 510.792 169.44 508.258 171.592C506.945 172.706 505.998 173.885 505.117 175.373C501.245 181.862 498.088 188.916 495.13 195.863C493.294 200.167 489.496 203.681 486.572 207.271C482.982 211.666 479.393 216.07 475.803 220.465C470.66 226.764 464.362 230.993 457.607 235.33C453.826 235.33 449.514 236.194 448.891 231.201C448.691 229.63 449.04 228.143 449.821 226.789C455.164 217.458 460.523 208.085 465.849 198.721C466.481 197.607 467.395 196.594 468.142 195.555C471.906 190.362 475.662 185.161 479.434 179.968C483.713 174.085 487.644 167.238 492.587 161.921C495.155 159.154 498.329 156.761 501.187 154.285C507.926 148.468 514.556 142.519 521.228 136.628C520.555 137.218 520.19 139.179 519.849 139.985H519.841Z" fill="#A9C9FC"/>
<path d="M591.92 -1.99805C591.613 -1.60753 591.231 -1.15053 590.948 -0.710158C589.702 1.2009 589.685 3.41108 589.369 5.64619C589.029 8.05578 588.705 10.4737 588.406 12.8916C588.173 14.786 587.957 16.6805 587.733 18.5749C587.508 20.5275 587.3 22.4884 587.126 24.4493C587.126 24.4161 591.613 24.2582 591.987 22.8872C592.153 22.2641 592.186 21.5661 592.278 20.9263C592.917 16.4977 591.862 12.0275 593.017 7.6154C593.507 5.73758 594.562 3.81822 594.338 1.82407C594.23 0.860235 593.806 0.253678 593.191 -0.452583C592.751 -0.951119 592.244 -1.3998 591.929 -1.99805H591.92Z" fill="#A9C9FC"/>
<path d="M583.213 58.2753C583.229 58.9483 583.271 59.6213 583.337 60.2944C583.404 60.9591 583.404 61.9561 584.326 61.6986C584.633 61.6155 585.016 61.5573 585.207 61.2665C585.39 60.9923 585.365 60.6101 585.423 60.3027C585.481 59.9537 585.606 59.5881 585.547 59.2308C585.514 58.9982 585.232 58.7572 585.099 58.5744C584.501 57.7768 584.06 57.9762 583.221 58.2753H583.213Z" fill="#A9C9FC"/>
<path d="M525.823 175.091C525.482 175.191 525.416 175.582 525.225 175.848C524.585 176.745 523.895 177.642 523.214 178.515C521.103 181.232 519.068 183.999 516.999 186.749L512.678 193.288L505.873 203.599L496.268 219.445L490.825 230.811L485.94 241.056C484.569 243.856 483.198 246.665 481.827 249.465C480.315 252.564 478.902 255.696 477.373 258.787C476.725 260.1 476.085 261.396 475.279 262.618C474.557 263.706 473.609 264.961 473.759 266.349C473.884 267.503 474.881 267.52 475.62 266.814C476.634 265.842 476.933 264.08 477.407 262.809C477.905 261.488 478.537 260.233 479.16 258.97C481.121 254.965 483.09 250.969 485.059 246.98L497.149 223.2L511.722 199.744L521.087 185.012C522.034 183.525 523.205 182.112 524.153 180.592C524.651 179.786 525.033 178.947 525.474 178.116C525.806 177.484 526.388 177.044 526.703 176.421C526.936 175.964 526.529 175.058 525.989 175.066C525.922 175.066 525.873 175.075 525.823 175.091V175.091Z" fill="#A9C9FC"/>
<path d="M216.697 59.5552L213.332 69.0025L198.118 94.4611L195.875 97.66L197.794 100.061C197.794 100.061 226.934 112.392 227.74 112.068C228.537 111.744 232.227 109.342 232.227 109.342L235.592 101.657L246.003 71.2376L243.917 69.3182L239.755 67.5567L216.697 59.5469V59.5552Z" fill="#C4C2C1"/>
<path d="M156.166 168.502L143.977 177.692L138.451 185.195L134.189 196.362C134.189 196.362 141.517 200.267 141.692 200.325C141.866 200.383 150.998 207.413 150.998 207.413C150.998 207.413 157.304 205.61 157.479 205.61C157.653 205.61 174.529 195.88 174.529 195.88L178.675 193.479L166.602 181.048L156.158 168.502H156.166Z" fill="#C4C2C1"/>
<path d="M254.96 184.771L242.787 187.953L237.187 192.78C237.187 192.78 239.106 200.308 239.43 200.948C239.754 201.588 237.187 205.751 237.187 205.751L226.776 214.234C226.776 214.234 223.411 217.915 223.095 219.194C222.779 220.474 217.81 220.158 217.81 220.158L214.129 229.93L205.804 239.219L185.788 256.834L191.712 264.196L225.18 234.416L229.019 235.214L237.029 238.895C237.029 238.895 240.876 240.332 242.953 240.332C245.03 240.332 254.32 240.49 254.32 240.49L259.804 239.045L258.001 227.362L248.553 224.479L248.395 215.514L251.121 207.404L255.284 200.94L253.522 197.101L255.923 187.014L254.96 184.771V184.771Z" fill="#C4C2C1"/>
<path d="M624.5 207.761L601.443 202.477C601.443 202.477 601.418 202.477 601.409 202.477C595.618 201.256 590.907 199.91 587.085 198.555L589.428 187.554L614.77 191.609C614.862 191.626 614.953 191.634 615.036 191.634C615.85 191.634 616.565 191.044 616.698 190.221C616.847 189.307 616.216 188.443 615.302 188.294L590.068 184.264L590.815 180.234L623.835 184.172C623.902 184.172 623.968 184.181 624.035 184.181C624.874 184.181 625.597 183.549 625.705 182.702C625.813 181.779 625.156 180.94 624.234 180.832L591.43 176.919L592.959 168.701L619.265 171.925C619.332 171.933 619.407 171.942 619.473 171.942C620.312 171.942 621.035 171.318 621.143 170.463C621.259 169.54 620.603 168.701 619.681 168.593L593.582 165.394L595.851 153.238L610.084 130.812C610.084 130.812 610.117 130.754 610.134 130.721L618.061 116.313C618.509 115.499 618.21 114.477 617.396 114.028C616.582 113.58 615.56 113.879 615.111 114.693L607.209 129.059L592.826 151.709C592.71 151.892 592.635 152.092 592.594 152.299L586.354 185.784L583.886 197.359C573.483 193.121 571.24 189.091 571.048 188.734C571.024 188.659 571.015 188.651 570.974 188.56C564.725 176.104 557.397 169.532 549.188 169.025C538.502 168.36 530.027 178.231 527.36 181.738L472.87 167.28L480.115 161.182C480.115 161.182 480.149 161.148 480.174 161.132L498.985 143.841C498.985 143.841 499.027 143.808 499.043 143.791L518.661 124.016C518.727 123.949 518.794 123.874 518.852 123.791L537.422 97.0531C537.505 96.9285 537.572 96.7955 537.622 96.6543L546.271 72.3755C546.288 72.334 546.296 72.2924 546.313 72.2509L551.506 52.9326L555.635 54.2122C555.635 54.2122 555.702 54.2288 555.735 54.2371L570.857 58.3168C571.306 59.0147 571.979 60.3774 571.672 62.0392C571.397 63.5431 570.808 65.0886 570.176 66.7254C569.885 67.4816 569.586 68.2626 569.32 69.0436C568.29 72.0515 567.168 75.5745 566.911 79.2138C566.711 81.9724 567.609 84.598 569.304 86.2432C571.996 88.8522 575.884 90.4309 579.715 90.4807C579.748 90.4807 579.781 90.4807 579.814 90.4807C583.479 90.4807 586.844 88.3204 588.821 84.6728C590.275 82.0056 591.43 79.1722 592.411 76.7294C592.544 76.3888 592.677 76.0398 592.81 75.6908C593.408 74.1121 593.973 72.6248 594.953 71.8188C596.283 70.7137 598.584 71.2954 601.443 72.1595C601.974 72.3174 602.498 72.4752 603.03 72.6331C603.935 72.899 604.866 73.1815 605.772 73.464L606.686 73.7548C609.328 74.594 612.061 75.4665 614.778 76.2724C615.086 76.3638 615.385 76.4635 615.692 76.5549C616.116 76.6879 616.565 76.8291 617.022 76.9621C618.493 77.3775 620.013 76.53 620.437 75.0593C620.852 73.5886 620.005 72.0681 618.534 71.6443C618.152 71.5363 617.77 71.4117 617.354 71.2871C617.022 71.179 616.69 71.0793 616.349 70.9796C613.682 70.1903 610.981 69.3261 608.364 68.4952L607.442 68.2044C606.494 67.9053 605.531 67.6145 604.6 67.3403C604.085 67.1824 603.561 67.0329 603.046 66.875C599.905 65.9195 595.153 64.4737 591.422 67.5647C589.32 69.3095 588.431 71.6527 587.641 73.7299C587.517 74.0539 587.401 74.3697 587.276 74.6854C586.362 76.9787 585.273 79.6292 583.961 82.0388C583.479 82.9196 582.124 84.9553 579.814 84.9553C579.798 84.9553 579.781 84.9553 579.773 84.9553C577.355 84.9303 574.821 83.9 573.142 82.2798C572.627 81.7812 572.336 80.7094 572.411 79.6126C572.627 76.6297 573.583 73.6385 574.538 70.8384C574.779 70.1487 575.045 69.4425 575.328 68.703C576.017 66.9082 576.724 65.047 577.097 63.0446C577.421 61.2914 577.247 59.6628 576.832 58.2669C578.842 57.4942 580.728 55.8573 581.659 52.8661L582.008 51.7361C582.523 50.066 583.03 48.3959 583.537 46.7258C584.276 44.2747 585.049 41.782 585.797 39.3724C586.138 38.2673 586.478 37.1705 586.819 36.0654C587.351 34.3372 589.769 33.4398 591.696 33.5977C592.677 33.6808 594.488 34.0131 595.543 35.3758C596.009 35.974 596.399 36.6221 596.574 37.104C597.687 40.1202 596.673 43.4022 595.601 46.8754L595.485 47.2493C595.319 47.7894 595.053 48.479 594.779 49.2102C594.023 51.1794 593.092 53.6305 592.934 56.0152C592.71 59.4219 594.172 62.0392 597.064 63.3853C597.164 63.4268 597.263 63.4683 597.363 63.5016L618.177 70.3897C618.468 70.4811 618.758 70.5309 619.041 70.5309C620.196 70.5309 621.276 69.7998 621.667 68.6365C622.149 67.1907 621.359 65.6287 619.913 65.1467L599.266 58.3168C598.734 58.0426 598.352 57.6687 598.443 56.3808C598.543 54.8353 599.282 52.891 599.939 51.1877C600.254 50.3651 600.545 49.5924 600.77 48.8861L600.886 48.5205C602.124 44.5156 603.52 39.9706 601.758 35.2096C601.276 33.9051 600.479 32.7419 599.897 32.0024C598.152 29.7673 595.402 28.388 592.145 28.1221C587.949 27.7814 582.964 29.8503 581.534 34.4701C581.194 35.5669 580.853 36.672 580.512 37.7688C579.765 40.1867 578.992 42.6877 578.244 45.1554C577.737 46.8172 577.23 48.4873 576.724 50.1491L576.383 51.2625C575.693 53.4561 574.056 53.4561 573.126 53.2483L557.206 48.9526L552.927 47.6232L554.863 40.4359L564.31 5.77102C564.327 5.71285 564.335 5.65469 564.343 5.59652L567.866 -16.0233C567.866 -16.0233 567.866 -16.0649 567.875 -16.0898L571.397 -44.7474C571.514 -45.6697 570.857 -46.5089 569.935 -46.6252C569.021 -46.7415 568.174 -46.0851 568.066 -45.1628L564.543 -16.5302L562.582 -4.49053L547.019 -6.86689L548.814 -16.6964C548.814 -16.6964 548.814 -16.7296 548.822 -16.7462L552.902 -45.4453C553.001 -46.1682 552.503 -46.8329 551.78 -46.9409C551.057 -47.0406 550.392 -46.5421 550.284 -45.8192L546.205 -17.1451L544.169 -6.00276C544.103 -5.65378 544.186 -5.28819 544.393 -4.99738C544.601 -4.70656 544.917 -4.51546 545.266 -4.4573L551.265 -3.54331L545.174 26.3273L540.264 27.6152H538.735C538.403 27.6152 538.095 27.7399 537.863 27.9476L542.906 5.33064C543.064 4.61607 542.615 3.90981 541.901 3.75194C541.186 3.59407 540.48 4.04275 540.322 4.75732L532.196 41.1837L515.246 35.9159L524.352 14.4456C524.352 14.4456 524.377 14.3874 524.385 14.3542L534.63 -13.3479C534.689 -13.5057 534.73 -13.6719 534.747 -13.8381L536.483 -30.0987L542.341 -46.8495C542.715 -47.9131 542.15 -49.0763 541.086 -49.4502C540.023 -49.8241 538.86 -49.2591 538.486 -48.1956L532.553 -31.2204C532.503 -31.0708 532.47 -30.9213 532.453 -30.7634L530.717 -14.5277L529.13 -10.2486L502.093 -19.6793L511.98 -29.6916C512.055 -29.7663 512.113 -29.8411 512.171 -29.9242L520.015 -41.457C520.538 -42.2215 520.339 -43.2684 519.575 -43.7918C518.81 -44.3153 517.763 -44.1159 517.24 -43.3515L509.479 -31.9516L497.165 -19.4799L475.919 -2.35514L454.457 8.61267C454.25 8.72069 454.067 8.87025 453.917 9.04474L448.841 15.2764L431.965 10.0335V-1.94799C431.965 -2.0477 432.015 -2.15572 431.99 -2.25543L429.489 -12.9407C429.381 -13.3728 429.074 -13.7218 428.65 -13.8796L396.328 -25.4955L390.803 -34.1202C390.412 -34.7351 389.589 -34.9096 388.975 -34.5191C388.36 -34.1285 388.177 -33.306 388.567 -32.6911L394.326 -23.6842C394.483 -23.4349 394.699 -23.2521 394.974 -23.1524L427.013 -11.6279L429.315 -1.79013V9.21092L428.334 8.90349C428.334 8.90349 428.268 8.88687 428.243 8.87856L380.342 -4.13324C379.918 -13.0155 366.948 -17.8929 366.349 -18.1089C366.283 -18.1338 366.225 -18.1504 366.158 -18.1754L319.936 -31.4531L263.194 -50.1897C261.748 -50.6633 260.186 -49.8823 259.704 -48.4282C259.23 -46.9825 260.011 -45.4204 261.465 -44.9385L281.548 -38.3162L263.069 23.9177L260.161 27.2081L253.298 25.8122L233.19 19.3478C233.19 19.3478 233.124 19.3312 233.09 19.3229L214.944 15.0272L196.556 7.29155L196.731 6.46065L200.544 -4.68164L228.072 3.85996C228.246 3.91812 228.429 3.93473 228.612 3.90981L235.741 3.09554L244.432 4.7407C244.515 4.75732 244.598 4.76563 244.681 4.76563C245.246 4.76563 245.753 4.40835 245.936 3.85165L247.249 -0.153266L259.272 3.85996C259.413 3.90981 259.554 3.92643 259.687 3.92643C260.244 3.92643 260.759 3.57745 260.942 3.02075C261.175 2.33111 260.801 1.58331 260.103 1.35066L248.063 -2.66256L260.942 -42.022C261.166 -42.7117 260.792 -43.4595 260.095 -43.6921C259.405 -43.9165 258.657 -43.5426 258.433 -42.8446L245.155 -2.24712L243.784 1.92397L236.032 0.461595C235.899 0.436668 235.766 0.428362 235.633 0.444979L228.587 1.25095L207.873 -5.18017L213.066 -21.6568L241.142 -12.3591C241.283 -12.3176 241.416 -12.2926 241.557 -12.2926C242.114 -12.2926 242.629 -12.6416 242.812 -13.1983C243.045 -13.8879 242.662 -14.6358 241.973 -14.8684L225.455 -20.3357L229.368 -32.9154C229.584 -33.6134 229.194 -34.3529 228.496 -34.5689C227.798 -34.7849 227.058 -34.3944 226.842 -33.6965L222.945 -21.1583L207.898 -26.1436L217.187 -53.2973C217.553 -54.3608 216.979 -55.5241 215.916 -55.8897C214.852 -56.2553 213.689 -55.6819 213.323 -54.6184L192.917 5.0149L165.281 -6.16063L183.793 -47.0074C184.093 -47.6721 183.793 -48.4532 183.137 -48.7523C182.472 -49.0514 181.691 -48.7523 181.392 -48.0959L176.465 -37.2195L155.634 -45.1628C154.953 -45.4204 154.189 -45.0797 153.931 -44.3984C153.674 -43.7171 154.014 -42.9526 154.696 -42.6951L175.368 -34.8099L162.83 -7.14939L128.04 -21.2164C128.14 -21.8064 128.19 -22.4212 128.19 -23.0361C128.19 -29.1598 123.205 -34.1452 117.081 -34.1452C113.633 -34.1452 110.55 -32.5665 108.506 -30.0904L69.9859 -45.653C68.9389 -46.0768 67.7508 -45.57 67.327 -44.523C66.9032 -43.4761 67.4101 -42.2879 68.457 -41.8642L72.0049 -40.435L50.0776 6.23632L26.9372 -3.85074L34.2158 -19.4383C34.5233 -20.103 34.2408 -20.8841 33.5761 -21.1915C32.9113 -21.4989 32.1303 -21.2164 31.8229 -20.5517L24.5193 -4.90598L10.203 -11.146L13.1444 -17.7599C13.1444 -17.7599 13.161 -17.7932 13.1693 -17.8098L19.9743 -34.9594L32.0306 -29.2346C32.2134 -29.1515 32.4045 -29.1099 32.5956 -29.1099C33.0858 -29.1099 33.5678 -29.3924 33.7921 -29.8661C34.1078 -30.5225 33.8253 -31.3118 33.1689 -31.6275L20.9548 -37.4272L24.9431 -47.4727C25.209 -48.154 24.8766 -48.9185 24.2036 -49.1843C23.5222 -49.4502 22.7578 -49.1179 22.4919 -48.4449L10.7348 -18.8068L7.76848 -12.1514C7.02898 -12.2677 6.28117 -11.8772 5.96544 -11.1626C5.658 -10.4564 5.87404 -9.65039 6.44735 -9.18509L4.02114 -3.73442C3.66386 -3.66794 3.3315 -3.45191 3.12378 -3.11124C2.8662 -2.67918 2.89113 -2.15572 3.14039 -1.75689L-1.82835 9.39371L-4.22133 8.35509C-4.89436 8.06428 -5.66709 8.37172 -5.9579 9.03643C-6.24871 9.70946 -5.94128 10.4822 -5.27657 10.773L12.1224 18.3424C12.2969 18.4172 12.4713 18.4505 12.6458 18.4505C13.1111 18.4505 13.5681 18.2012 13.8008 17.7691L20.1156 6.30279L25.7573 7.26662C25.8321 7.28324 25.9069 7.28324 25.9817 7.28324C26.6132 7.28324 27.1699 6.82625 27.2862 6.18646C27.4108 5.46359 26.9289 4.78225 26.206 4.66593L15.878 2.90443L6.43074 -2.68749L8.83202 -8.07169L48.6485 9.2857L39.2843 29.2106L37.6391 28.4627L27.6933 23.5522C27.5188 23.4691 27.336 23.4109 27.1449 23.386L21.9851 22.7877C21.8023 22.7628 21.6195 22.7794 21.4367 22.8127L14.1082 24.383C14.0002 24.408 13.9005 24.4412 13.8008 24.4828L1.41213 29.7423L-4.61185 31.4207C-5.50922 31.67 -6.03268 32.6006 -5.7751 33.4897C-5.52584 34.387 -4.59523 34.9105 -3.70618 34.6529L2.41752 32.9413C2.48399 32.9246 2.55877 32.8997 2.62524 32.8665L14.964 27.6318L21.8604 26.1529L26.4636 26.6846L36.1685 31.4789C36.1685 31.4789 36.2017 31.4955 36.2183 31.5038L50.194 37.8352L56.7913 41.6573L61.5107 46.1608L63.7292 52.6335L66.7952 68.3374L68.3905 79.4631V80.5432L-11.6329 45.9946C-12.6715 45.5459 -13.868 46.0279 -14.3167 47.0582C-14.7654 48.0968 -14.2835 49.2933 -13.2532 49.742L10.5021 59.9952L1.02992 78.6155L-5.57569 75.5994C-6.24041 75.3003 -7.02145 75.5911 -7.32888 76.2558C-7.628 76.9205 -7.33719 77.7016 -6.67247 78.009L-0.166566 80.9753L-6.65585 93.7378C-6.98821 94.3859 -6.73063 95.1836 -6.07423 95.5159C-5.88312 95.6157 -5.6754 95.6572 -5.47598 95.6572C-4.99406 95.6572 -4.52876 95.3913 -4.29611 94.9343L2.24303 82.0471L17.0994 88.8106L50.6676 104.157C50.6676 104.157 50.6509 104.19 50.6509 104.207L46.2804 114.377L3.92974 113.206C3.71371 112.815 3.31488 112.533 2.83296 112.516C2.33443 112.491 1.88574 112.749 1.63648 113.148L-6.73063 112.915C-7.46182 112.89 -8.06837 113.472 -8.08499 114.203C-8.10161 114.934 -7.52829 115.54 -6.7971 115.557L1.34566 115.781L-0.0917853 144.439L-6.0493 144.14C-6.78049 144.098 -7.39535 144.663 -7.43689 145.395C-7.47013 146.126 -6.91343 146.766 -6.18224 146.799L1.09639 147.181L40.4476 149.117L40.3063 149.981C40.3063 149.981 40.298 150.039 40.2897 150.064L38.7359 163.151L-4.73649 162.553H-4.76141C-5.48429 162.553 -6.07423 163.093 -6.08254 163.815C-6.09084 164.547 -5.50922 165.112 -4.77803 165.12L38.4119 165.876L36.21 184.405C36.1851 184.613 36.1934 184.82 36.2349 185.028L37.1738 189.947L16.2436 190.387C15.9196 190.147 15.5124 190.014 15.0887 190.055C14.7563 190.088 14.4489 190.23 14.2079 190.429L-4.85281 190.828C-5.584 190.844 -6.15732 191.468 -6.14901 192.199C-6.13239 192.922 -5.54245 193.537 -4.82788 193.537H-4.80296L13.726 193.138L19.3262 245.177H-4.27119C-5.20179 245.177 -5.94959 245.933 -5.94959 246.855C-5.94959 247.777 -5.19348 248.533 -4.27119 248.533H19.7832L22.8492 265.675L10.5437 268.059C9.62968 268.234 9.03975 269.115 9.21424 270.029C9.37211 270.835 10.0701 271.391 10.8594 271.391C10.9674 271.391 11.0754 271.383 11.1835 271.358L24.9265 268.691C24.9846 268.691 25.0428 268.691 25.1009 268.683C25.2006 268.666 25.292 268.641 25.3834 268.608L53.2932 263.199C53.8831 263.082 54.3734 262.659 54.5645 262.094L55.736 258.645L60.7048 256.992C61.1368 256.851 61.4941 256.535 61.6852 256.128L63.6877 251.982C63.8539 251.633 63.8954 251.242 63.8123 250.868L63.0894 247.786C63.4633 247.254 63.5714 246.548 63.3221 245.9L55.6363 225.601C55.6363 225.601 55.6031 225.518 55.5865 225.476L42.7159 197.242L40.298 184.588L44.3361 150.613L50.0527 115.973L54.3069 106.11L69.5372 84.9802H75.4531C75.5445 84.9802 75.6359 84.9137 75.719 84.9054L88.4483 83.1605C88.6394 83.1356 88.8222 83.0858 88.9967 83.011L98.3609 78.9313C98.6185 78.815 98.8511 78.6488 99.0506 78.4411L112.37 63.9835L120.022 55.9487L147.5 42.8206L152.735 53.805L134.131 62.5211L105.473 76.289C105.415 76.3223 105.349 76.3555 105.291 76.3887L91.2651 84.9636L80.505 86.1933C80.1228 86.2348 79.7572 86.3927 79.4581 86.6337L66.3299 97.2027C66.1637 97.3356 66.0142 97.5018 65.8979 97.6846L53.5674 116.662C53.3929 116.928 53.2849 117.236 53.2516 117.56L48.69 159.835C48.69 159.835 48.69 159.885 48.69 159.91L46.0478 197.857C46.0229 198.165 46.0727 198.48 46.189 198.771L72.894 264.478L54.0825 274.715C53.9496 274.79 53.825 274.873 53.7003 274.964L21.5613 300.049L11.7983 305.516L-5.9579 265.534C-6.25702 264.869 -7.03806 264.57 -7.70278 264.861C-8.36749 265.151 -8.66662 265.941 -8.3758 266.605L9.48012 306.804L-18.5875 322.508C-19.9169 323.256 -20.3905 324.934 -19.651 326.264C-19.1442 327.169 -18.2053 327.676 -17.2414 327.676C-16.7845 327.676 -16.3192 327.56 -15.8954 327.327L12.4215 311.482L21.8521 322.624L7.22009 339.541C6.74648 340.09 6.80464 340.929 7.35303 341.403C7.6023 341.619 7.90973 341.727 8.21716 341.727C8.59106 341.727 8.95666 341.569 9.21424 341.27L23.9875 324.186L41.3948 330.568L35.4456 339.683C35.0467 340.297 35.2212 341.112 35.8278 341.511C36.0521 341.66 36.3014 341.727 36.5507 341.727C36.9827 341.727 37.4065 341.519 37.6558 341.128L43.9373 331.498L63.7126 338.744L62.6491 342.965C62.4746 343.671 62.8983 344.394 63.6129 344.568C63.7209 344.593 63.8289 344.61 63.9369 344.61C64.5269 344.61 65.067 344.269 65.2165 343.671L66.2219 339.666L68.3573 340.447C68.5069 340.505 68.6647 340.53 68.8143 340.53C69.3544 340.53 69.8612 340.198 70.0523 339.666C70.3016 338.985 69.9526 338.22 69.263 337.971L66.87 337.09L68.2576 331.573L77.1482 333.243C77.2313 333.26 77.306 333.326 77.3891 333.326H85.8809L86.1551 340.464C86.18 341.178 86.7699 341.735 87.4762 341.735C87.4928 341.735 87.5094 341.735 87.526 341.735C88.2572 341.71 88.8222 341.095 88.7973 340.364L87.8501 315.695L90.6419 309.446L101.842 320.182C101.992 320.323 102.166 320.439 102.349 320.514L114.248 325.524L106.362 340.439C106.022 341.087 106.271 341.884 106.911 342.225C107.11 342.333 107.318 342.375 107.526 342.375C107.999 342.375 108.456 342.117 108.697 341.668L116.69 326.546L129.735 332.038C129.868 332.097 130.01 332.13 130.151 332.155L139.116 333.434C139.199 333.443 139.274 333.451 139.357 333.451C139.656 333.451 139.947 333.376 140.205 333.218L148.298 328.507L155.875 339.94C156.133 340.322 156.548 340.53 156.981 340.53C157.23 340.53 157.487 340.455 157.712 340.314C158.318 339.915 158.484 339.093 158.086 338.486L150.591 327.178L154.945 324.635C155.011 324.594 155.078 324.552 155.136 324.502L159.041 321.444L176.207 344.095C176.465 344.435 176.864 344.618 177.263 344.618C177.537 344.618 177.819 344.527 178.06 344.352C178.642 343.912 178.758 343.081 178.318 342.499L161.127 319.816L176.922 307.427C176.922 307.427 176.997 307.369 177.03 307.336L186.926 298.163C187.125 298.13 187.316 298.055 187.491 297.93C187.757 297.739 187.923 297.465 187.998 297.174L203.934 282.401C203.934 282.401 203.993 282.343 204.026 282.309L205.064 281.188L228.521 306.239C227.823 307.436 227.415 308.831 227.415 310.319C227.415 312.105 227.997 313.75 228.978 315.088L202.189 337.921C201.483 338.519 201.4 339.583 201.998 340.289C202.331 340.68 202.804 340.879 203.278 340.879C203.66 340.879 204.051 340.746 204.366 340.48L231.503 317.356C231.811 317.531 232.127 317.689 232.459 317.822V341.843C232.459 342.774 233.215 343.521 234.137 343.521C235.06 343.521 235.816 342.765 235.816 341.843V318.42C237.203 318.37 238.5 317.971 239.63 317.307L261.349 340.597C261.748 341.029 262.296 341.245 262.845 341.245C263.343 341.245 263.842 341.062 264.232 340.696C265.055 339.924 265.105 338.636 264.332 337.813L242.513 314.415C243.219 313.21 243.626 311.814 243.626 310.327C243.626 308.358 242.92 306.547 241.74 305.142L263.958 286.323L299.321 306.92L274.926 340.879C274.386 341.635 274.56 342.682 275.308 343.222C275.607 343.438 275.948 343.538 276.289 343.538C276.812 343.538 277.327 343.297 277.651 342.84L306.118 303.223L342.644 328.79L327.114 340.214C326.209 340.879 326.009 342.159 326.682 343.073C327.081 343.613 327.704 343.904 328.328 343.904C328.751 343.904 329.175 343.771 329.532 343.505L360.383 320.805L376.021 310.751C376.195 310.643 376.353 310.502 376.486 310.344L387.554 297.083L400.125 305.491C400.275 305.591 400.433 305.674 400.599 305.749L420.773 314.158C421.055 314.274 421.346 314.34 421.645 314.365L432.472 315.096L431.932 317.066C431.932 317.066 431.932 317.066 431.932 317.074L430.486 322.325L418.081 336.932C417.483 337.639 417.566 338.702 418.272 339.3C418.588 339.566 418.978 339.699 419.36 339.699C419.834 339.699 420.308 339.5 420.64 339.109L433.286 324.22C433.286 324.22 433.336 324.153 433.361 324.12L434.715 326.854L431.973 338.478C431.757 339.383 432.322 340.289 433.22 340.497C433.353 340.53 433.477 340.538 433.61 340.538C434.375 340.538 435.064 340.015 435.247 339.242L438.13 327.036C438.222 326.654 438.172 326.255 438.006 325.906L435.388 320.605L446.099 327.277C446.373 327.452 446.68 327.535 446.988 327.535C447.553 327.535 448.101 327.252 448.417 326.746C448.907 325.956 448.666 324.918 447.877 324.427L435.521 316.733L435.912 315.321L443.041 315.803C443.232 315.819 443.431 315.803 443.623 315.778L467.062 312.396L468.234 313.817L456.061 323.073C455.837 323.239 455.662 323.464 455.546 323.721L448.658 339.093C448.276 339.94 448.658 340.937 449.505 341.311C449.73 341.411 449.962 341.461 450.195 341.461C450.835 341.461 451.45 341.087 451.732 340.464L458.446 325.483L470.377 316.409L476.725 324.12L465.317 331.307C465.026 331.49 464.802 331.756 464.669 332.072L459.31 344.718C458.944 345.574 459.343 346.562 460.199 346.92C460.415 347.011 460.639 347.053 460.855 347.053C461.512 347.053 462.135 346.67 462.401 346.031L467.552 333.866L478.869 326.729L493.933 345.042C494.482 345.707 495.271 346.047 496.069 346.047C496.683 346.047 497.307 345.84 497.822 345.416C499.002 344.444 499.168 342.707 498.204 341.527L471.291 308.815L479.26 298.769L486.821 291.208L493.692 287.345L494.257 287.095V302.218C494.257 302.824 494.648 303.389 495.171 303.68L525.075 320.464L554.805 340.248C555.087 340.439 555.411 340.53 555.735 340.53C556.275 340.53 556.807 340.264 557.131 339.782C557.646 339.01 557.43 337.963 556.657 337.448L546.986 331.016L549.121 330.202L550.858 329.853C550.858 329.853 550.866 329.853 550.874 329.853L551.149 329.795L555.054 330.136C555.137 330.136 555.212 330.136 555.295 330.136L561.842 329.778C561.967 329.778 562.091 329.753 562.216 329.712L570.4 327.336L579.499 325.881C578.9 326.837 578.352 327.809 577.87 328.781C576.665 331.183 575.22 334.847 575.161 338.652V338.702C575.087 339.492 575.585 340.239 576.375 340.472C576.532 340.513 576.682 340.538 576.84 340.538C577.571 340.538 578.244 340.057 578.452 339.317C578.518 339.084 578.518 338.902 578.527 338.71C578.551 336.941 579.083 332.479 583.03 326.638L588.813 332.146C588.813 332.146 588.846 332.171 588.855 332.188L597.803 340.115C598.119 340.397 598.518 340.538 598.917 340.538C599.316 340.538 599.748 340.389 600.063 340.081L617.595 323.63C618.268 322.998 618.31 321.926 617.67 321.253C617.039 320.58 615.967 320.539 615.294 321.179L598.875 336.583L591.098 329.695L585.041 323.921C587.808 320.497 591.746 316.717 597.33 312.795C603.262 308.632 607.633 305.674 610.84 303.572C614.704 307.087 618.135 309.048 618.434 309.222C618.692 309.372 618.974 309.438 619.257 309.438C619.847 309.438 620.412 309.131 620.719 308.582C621.176 307.776 620.886 306.746 620.08 306.289C620.013 306.256 617.163 304.611 613.798 301.669C617.911 299.077 619.116 298.587 619.315 298.512C620.113 298.329 620.678 297.589 620.611 296.75C620.562 296.102 620.154 295.57 619.598 295.329C619.681 295.13 619.731 294.906 619.731 294.673C619.731 293.742 618.974 292.995 618.052 292.995H606.337C604.833 290.502 603.653 287.702 603.138 284.644C602.689 281.985 602.506 278.894 602.589 275.288L615.601 282.65C615.859 282.8 616.149 282.866 616.424 282.866C617.014 282.866 617.579 282.559 617.886 282.01C618.343 281.204 618.061 280.174 617.246 279.717L602.755 271.516C602.789 271.051 602.822 270.585 602.855 270.112C603.478 262.252 605.472 256.236 608.971 251.707C611.904 247.91 615.584 244.944 619.481 241.812C621.093 240.515 622.763 239.169 624.359 237.773C625.057 237.159 625.123 236.103 624.517 235.397C623.902 234.699 622.846 234.633 622.14 235.239C620.603 236.585 618.958 237.906 617.371 239.186C613.491 242.31 609.486 245.534 606.312 249.647C602.897 254.076 600.761 259.684 599.831 266.738L583.421 259.427L584.193 257.806C584.301 257.582 584.301 257.333 584.301 257.075V252.871C584.301 252.763 584.343 252.663 584.326 252.555L583.479 247.885L584.368 247.495C584.418 247.478 584.459 247.453 584.501 247.428L602.274 237.981C602.714 237.748 603.046 237.366 603.221 236.901L610.109 218.804C610.159 218.671 610.192 218.538 610.217 218.405L611.737 209.024L623.594 211.741C623.744 211.775 623.902 211.791 624.051 211.791C624.982 211.791 625.821 211.152 626.037 210.204C626.286 209.108 625.605 208.011 624.5 207.761V207.761ZM210.557 -22.4877L205.347 -5.96121L201.4 -7.18263L207.034 -23.651L210.557 -22.4877ZM14.748 5.2891C14.8892 5.37219 15.0388 5.43035 15.1967 5.45527L17.3653 5.82087L12.0725 15.426L0.589548 10.4323L5.35888 -0.26959L14.7563 5.2891H14.748ZM45.7404 117.011L42.1924 138.515L3.06561 134.186L3.98791 115.856L45.7404 117.011V117.011ZM2.93267 136.82L23.0736 139.047L22.6415 145.552L2.54215 144.555L2.93267 136.811V136.82ZM25.2837 145.694L25.6992 139.346L41.7604 141.124L40.8796 146.466L25.2837 145.694ZM26.1479 265.035L23.1982 248.533H27.4939L41.0458 252.538L46.5297 255.995C46.6211 256.053 46.7208 256.103 46.8288 256.144L52.2961 258.288L51.6896 260.075L26.1479 265.027V265.035ZM51.8391 227.105L59.5 247.337C59.5 247.337 59.5332 247.412 59.5498 247.445L60.3973 251.051L58.9599 254.026L54.4481 255.53L48.1998 253.087L42.6577 249.539C42.5248 249.456 42.3835 249.406 42.234 249.356L28.2251 245.185C28.0672 245.135 27.9094 245.177 27.7432 245.177H22.6913L17.0828 193.063L37.6724 192.614L38.7442 198.239C38.7775 198.397 38.8273 198.555 38.8938 198.705L51.8391 227.105V227.105ZM548.955 173.072C555.594 173.495 561.759 179.287 567.293 190.296C567.667 191.169 569.437 194.459 576.183 198.214C570.251 199.901 564.734 202.269 558.976 204.737L558.112 205.119C551.456 207.969 543.845 210.271 537.896 205.468C531.382 200.209 530.285 190.437 530.243 184.704C531.955 182.378 539.765 172.49 548.955 173.08V173.072ZM477.938 158.606L468.94 166.184L461.985 164.115L463.124 158.647L469.131 149.05L480.855 133.504L493.352 144.456L477.938 158.622V158.606ZM459.983 173.72L461.146 168.119L465.201 169.324L459.983 173.72ZM387.67 290.519L370.412 278.977L396.984 249.098L408.185 262.974L405.9 266.198L390.254 287.428L387.67 290.519V290.519ZM358.73 260.448C358.73 260.448 358.722 260.424 358.713 260.407L355.174 253.178L381.762 247.578L393.719 245.06L394.832 246.44L367.587 277.083L366.092 276.078L358.73 260.44V260.448ZM333.371 261.063C333.33 260.731 333.271 260.424 333.188 260.133L334.352 260.357L333.363 261.063H333.371ZM308.419 294.199L284.822 268.616L294.959 260.025C295.241 259.792 295.432 259.468 295.516 259.111L296.787 253.444L303.7 254.001L313.189 256.211C313.189 256.211 313.23 256.219 313.247 256.228L329.067 259.318C329.374 259.667 329.906 260.399 330.039 261.495C330.239 263.149 329.507 265.043 327.854 267.146C327.837 267.162 327.821 267.187 327.812 267.204L308.419 294.191V294.199ZM147.434 299.667C147.35 299.733 147.267 299.808 147.193 299.891C147.176 299.908 146.752 300.373 146.021 301.004L142.058 298.429L145.049 285.708L155.934 251.658L159.44 245.659H161.442C162.174 245.659 162.764 245.069 162.764 244.337C162.764 243.606 162.174 243.016 161.442 243.016H158.684C158.21 243.016 157.778 243.207 157.537 243.615L153.574 250.403C153.524 250.486 153.491 250.569 153.458 250.661L151.862 255.654L147.193 254.2L139.241 247.553L141.9 245.21C141.958 245.152 142.016 245.094 142.066 245.027L155.194 228.135L164.949 219.743L167.093 219.178L168.58 224.064C168.754 224.637 169.278 225.003 169.843 225.003C169.967 225.003 170.1 224.986 170.225 224.944C170.923 224.728 171.313 223.997 171.106 223.299L169.652 218.513L176.548 216.694C176.689 216.66 176.822 216.594 176.939 216.519L186.544 210.146C186.544 210.146 186.56 210.138 186.569 210.13L190.574 207.329L193.324 210.096C193.324 210.096 193.399 210.171 193.44 210.196C193.465 210.221 196.348 212.506 199.256 214.766C205.372 219.527 205.646 219.61 206.203 219.61C206.801 219.652 212.385 220.358 216.78 220.915L214.553 225.111C214.553 225.111 214.528 225.16 214.512 225.185L211.62 231.608L194.412 247.802L185.455 255.654L180.03 250.137C179.514 249.614 178.683 249.614 178.16 250.12C177.637 250.636 177.637 251.467 178.143 251.99L189.892 263.938L176.191 276.418L147.417 299.675L147.434 299.667ZM131.929 303.788L109.993 290.319L111.265 288.782C111.315 288.716 111.364 288.649 111.398 288.574L113.6 284.569L118.668 290.128C118.809 290.286 118.984 290.402 119.183 290.477L132.502 295.471L140.304 300.431L143.744 302.675C140.894 304.461 136.574 306.065 131.929 303.78V303.788ZM95.9015 284.968L97.1727 276.875C97.206 276.668 97.1893 276.452 97.1229 276.252L91.8467 260.332L99.5408 257.923L103.762 266.622C103.762 266.622 103.77 266.647 103.778 266.655L111.888 282.16L109.154 287.187L107.725 288.915L104.626 287.012C104.435 286.896 104.219 286.804 104.003 286.763L95.9098 284.96L95.9015 284.968ZM78.4444 266.589L87.1189 261.819L89.3208 261.13L94.5139 276.784L93.3174 284.395L89.3042 283.506L83.1389 278.828L78.328 266.996C78.3779 266.863 78.4194 266.73 78.4444 266.589ZM95.594 244.753L90.0437 229.315L93.5251 226.074C93.6913 225.917 93.8159 225.717 93.8907 225.501L98.552 210.437L104.767 196.47C104.767 196.47 104.792 196.42 104.8 196.387L105.847 193.545L110.6 195.049L117.488 197.234C117.895 197.367 118.336 197.292 118.685 197.043L122.058 194.55L125.656 194.284L140.728 201.281L149.453 208.293L149.727 208.642L141.958 212.921C141.891 212.963 141.825 213.004 141.767 213.054L134.879 218.638L119.59 227.595C119.59 227.595 119.532 227.628 119.499 227.653C116.209 229.946 107.592 235.945 107.276 236.161C107.11 236.269 106.77 236.494 100.446 243.673L96.8736 247.162L95.6023 244.77L95.594 244.753ZM52.7448 160.201L53.6671 151.659L60.6632 152.382C60.7048 152.382 60.7546 152.449 60.7962 152.449H65.1168L60.9457 182.785L51.2907 180.998L52.7365 160.201H52.7448ZM67.784 152.457H68.9639C69.0137 152.457 69.0553 152.391 69.1051 152.391L71.4898 152.125V170.596C71.4898 170.67 71.5562 170.745 71.5729 170.82L74.0074 184.646H73.1433L69.4707 184.089C69.2131 183.931 68.8974 183.865 68.5733 183.923C68.5401 183.923 68.5152 183.931 68.4902 183.94L63.563 183.192L67.784 152.457V152.457ZM158.418 172.789L152.635 178.522C152.386 178.772 152.228 179.112 152.228 179.47C152.228 179.827 152.344 180.159 152.602 180.408L161.8 189.407V191.418L161.093 192.174C160.57 192.689 160.628 193.52 161.135 194.043C161.393 194.309 161.733 194.442 162.074 194.442C162.415 194.442 162.714 194.318 162.971 194.06L164.101 192.922C164.351 192.672 164.434 192.332 164.434 191.983V188.859C164.434 188.501 164.351 188.161 164.093 187.911L155.46 179.461L159.83 175.124L160.42 176.096C160.47 176.179 160.528 176.254 160.595 176.32L176.922 193.47L166.544 199.237L156.108 205.111L152.053 207.346L151.422 206.54C151.355 206.457 151.289 206.391 151.206 206.324L142.24 199.12C142.157 199.054 142.066 198.996 141.966 198.954L135.377 195.896L141.617 181.597L156.374 169.457L158.418 172.806V172.789ZM130.367 224.313L140.088 236.967C140.346 237.308 140.737 237.483 141.135 237.483C141.418 237.483 141.7 237.391 141.941 237.208C142.523 236.768 142.631 235.937 142.182 235.355L132.66 222.967L136.275 220.848C136.333 220.815 136.391 220.773 136.441 220.732L143.312 215.165L151.355 210.736L159.407 221.014L153.358 226.224C153.291 226.282 153.233 226.349 153.175 226.423L140.039 243.332L137.189 245.85L132.86 242.235L123.346 228.426L130.359 224.321L130.367 224.313ZM161.417 219.286L153.707 209.44L157.396 207.404L159.93 205.975L162.722 209.614L166.095 215.888L166.32 216.635L163.977 217.25C163.786 217.3 163.603 217.4 163.453 217.524L161.417 219.278V219.286ZM168.58 214.999C168.555 214.915 168.522 214.832 168.48 214.758L164.999 208.277C164.965 208.21 164.924 208.152 164.882 208.094L162.257 204.671L167.84 201.53L178.808 195.439L179.573 196.245L179.589 196.262L188.679 205.41L185.065 207.944L175.651 214.184L168.871 215.971L168.58 214.999V214.999ZM154.504 167.546L139.69 179.735C139.532 179.868 139.399 180.035 139.316 180.226L132.976 194.758L126.429 191.725C126.221 191.634 125.996 191.592 125.772 191.609L121.451 191.933C121.202 191.95 120.961 192.041 120.762 192.191L117.629 194.517L111.381 192.498L106.745 191.027L113.3 173.205C113.3 173.205 113.325 173.138 113.334 173.105L116.765 160.7L123.811 162.602L133.142 165.652C133.333 165.71 133.533 165.735 133.724 165.702L139.008 165.004C139.091 164.995 139.174 164.97 139.249 164.945L145.198 162.96L151.048 164.871L154.48 167.53L154.504 167.546ZM110.816 172.34L104.235 190.221L86.6536 184.638C86.5207 184.596 86.3877 184.638 86.2548 184.638H76.6247L74.1237 170.471V152.258L74.24 151.809L77.5553 151.435L93.2841 154.343L114.231 160.01L110.816 172.34V172.34ZM72.8524 187.205C72.9189 187.213 72.9771 187.28 73.0436 187.28H74.4644L75.827 194.991C75.8354 195.049 75.852 195.099 75.8686 195.157L81.5768 213.495C81.5768 213.495 81.5851 213.528 81.5935 213.553L87.0524 228.75L84.3354 232.771L82.9811 233.228L80.9703 231.384L76.1428 210.761C76.1428 210.761 76.1345 210.719 76.1262 210.703L72.0631 196.478L70.4179 186.848L72.8608 187.213L72.8524 187.205ZM84.0529 212.68L78.353 194.451L77.09 187.28H86.0471L103.313 192.739L102.324 195.431L96.1009 209.432C96.0759 209.481 96.0593 209.531 96.0427 209.581L91.4645 224.388L89.0715 226.614L84.0612 212.68H84.0529ZM102.308 245.509C102.308 245.509 102.358 245.459 102.374 245.434C105.133 242.302 108.273 238.787 108.797 238.28C109.811 237.582 119.599 230.761 120.953 229.822L121.069 229.755L130.799 243.872C130.865 243.972 130.949 244.063 131.04 244.138L135.194 247.611L130.309 251.932L116.616 255.006H101.02L98.1449 249.572L102.308 245.501V245.509ZM139.681 296.908L133.799 293.161C133.724 293.111 133.641 293.069 133.549 293.036L120.396 288.101L114.929 282.11L117.314 277.764C117.314 277.764 117.314 277.731 117.33 277.706L121.601 268.907C121.692 268.724 121.676 268.525 121.676 268.325V262.077C121.676 261.346 121.086 260.756 120.355 260.756C119.624 260.756 119.034 261.346 119.034 262.077V268.018L114.937 276.51L113.392 279.343L106.105 265.426L102.324 257.632H116.749C116.848 257.632 116.94 257.565 117.031 257.54L131.198 254.358C131.414 254.308 131.622 254.208 131.788 254.059L137.214 249.281L145.68 256.361C145.813 256.469 145.971 256.56 146.137 256.61L151.04 258.139L142.498 284.893C142.498 284.893 142.481 284.96 142.473 284.993L139.673 296.892L139.681 296.908ZM195.143 264.661L207.349 253.544L211.919 259.327L213.681 268.442L212.268 268.791C211.944 268.865 211.662 269.04 211.437 269.281L205.488 275.712L195.143 264.661ZM216.248 267.819L214.445 258.513C214.404 258.305 214.312 258.114 214.188 257.948L209.302 251.766L218.907 243.016L237.112 263.298L236.713 268.217H231.163L218.035 267.503C217.868 267.494 217.711 267.453 217.553 267.486L216.248 267.81V267.819ZM237.403 259.676L220.86 241.238L226.393 236.203L237.394 241.595C237.635 241.712 237.901 241.787 238.167 241.803L238.857 241.845L237.411 259.676H237.403ZM263.551 282.201L245.321 271.583H246.7C246.892 271.583 247.083 271.491 247.266 271.425L261.914 266.124C261.914 266.124 261.956 266.107 261.981 266.099L282.62 257.731L293.28 253.61L292.333 257.815L263.543 282.201H263.551ZM334.684 256.992L313.903 252.929L304.323 250.694C304.24 250.677 304.157 250.661 304.074 250.652L294.145 249.855C293.895 249.838 293.638 249.871 293.405 249.963L281.399 254.616C281.399 254.616 281.382 254.641 281.374 254.641L260.751 263.033L246.41 268.217H240.087L242.214 242.044L265.545 243.473C265.678 243.473 265.803 243.473 265.936 243.457L304.846 238.413C304.846 238.413 304.888 238.413 304.913 238.405L334.219 233.602C334.509 233.552 334.784 233.444 335.025 233.278L338.224 231.126L348.252 251.608L334.684 256.984V256.992ZM263.426 189.166L255.807 185.153L258.765 181.605C258.765 181.605 258.79 181.58 258.798 181.563L272.99 163.026L280.402 168.261L275.715 175.996C275.624 176.146 275.566 176.304 275.541 176.478L272.973 192.938L263.426 189.174V189.166ZM288.195 135.1L282.072 131.577C281.98 131.527 281.889 131.485 281.789 131.452L278.25 130.405L281.631 122.512C281.656 122.454 281.673 122.404 281.689 122.346L283.293 116.563L298.922 121.024L296.18 128.843C295.84 129.807 296.272 130.879 297.186 131.336L319.005 142.395L319.13 144.705V152.814L316.637 175.747H316.612C316.521 175.747 316.429 175.697 316.338 175.714L314.967 175.922L313.828 173.612C313.77 173.495 313.696 173.387 313.604 173.288L305.802 165.004C305.727 164.921 305.636 164.846 305.536 164.788L295.092 158.307C295.092 158.307 295.059 158.29 295.042 158.273L282.171 151.053L282.471 150.662C282.512 150.604 282.554 150.546 282.587 150.488L287.431 141.523C287.481 141.431 287.514 141.34 287.539 141.248L288.819 136.604C288.976 136.022 288.727 135.407 288.204 135.108L288.195 135.1ZM275.69 129.649L271.295 128.345L258.217 123.542L261.092 110.223L280.751 115.831L279.164 121.548L275.699 129.641L275.69 129.649ZM326.541 58.1755L352.39 68.9273C352.814 72.3506 354.06 76.2475 357.002 79.8453L372.257 101.232L365.577 109.882C365.477 110.015 365.394 110.156 365.336 110.306L357.534 130.721C357.475 130.871 357.442 131.02 357.425 131.178L357.201 133.853C353.944 133.097 350.554 132.308 347.671 131.635L342.843 129.907L355.34 91.7769C355.39 91.6274 355.423 91.4695 355.431 91.3033C355.88 85.7779 352.64 84.6395 351.219 84.4069C348.028 83.8834 344.821 85.512 343.234 88.4616C341.14 92.3585 338.938 96.297 336.819 100.111C335.623 102.254 334.385 104.481 333.172 106.675L325.968 119.869L323.716 123.849L308.652 119.545L318.432 84.8057L326.533 58.1589L326.541 58.1755ZM356.969 60.635L358.356 56.8378L384.646 56.3476L384.579 58.5661C383.773 58.6741 383.133 59.372 383.125 60.2195C383.117 61.0421 383.698 61.7401 384.479 61.8896V62.006L356.42 63.7592C356.586 62.0143 356.91 60.8344 356.969 60.6267V60.635ZM393.071 31.7448L403.133 38.7326L401.513 51.0548C401.496 51.1628 401.496 51.2708 401.513 51.3788L402.036 55.9072C401.829 55.9072 401.629 55.9072 401.446 55.982L395.048 58.6658L387.953 58.5827L388.293 47.4154L393.079 31.7365L393.071 31.7448ZM447.195 20.5111L448.957 48.6119L438.072 47.2742L414.616 43.4853L406.673 37.9682L420.141 25.9119C420.141 25.9119 420.2 25.8454 420.233 25.8122L429.813 15.1103L447.204 20.5111H447.195ZM495.504 116.878L489.986 113.388L491.432 109.6C491.465 109.508 491.49 109.417 491.515 109.325L498.378 79.2636L521.934 84.5814L520.671 91.3199L513.841 108.278L502.541 121.099L495.504 116.862V116.878ZM479.359 128.685L461.778 113.28L462.866 112.441C462.991 112.342 463.099 112.225 463.182 112.092L468.591 103.409L472.297 105.337L485.508 113.679L480.199 127.564L479.359 128.677V128.685ZM459.193 157.459L458.055 162.943L453.194 161.497C453.568 159.761 453.485 157.949 452.879 156.238C451.691 152.889 449.821 151.053 446.68 150.18L451.126 133.646C451.126 133.646 451.134 133.612 451.142 133.596L454.183 120.626C454.2 120.542 454.216 120.459 454.225 120.368L454.333 119.014L459.651 114.917L477.772 130.796L465.816 146.649C465.782 146.699 465.749 146.749 465.716 146.799L459.468 156.786C459.343 156.994 459.252 157.218 459.202 157.451L459.193 157.459ZM398.937 240.54L391.692 242.061L383.142 220.516L383.275 220.466C383.532 220.366 383.74 220.183 383.889 219.951L386 216.635L399.294 217.308L406.988 218.995L415.921 224.936L415.015 226.689L398.937 240.54V240.54ZM342.868 228.044L355.406 219.618C355.622 219.477 355.805 219.294 355.947 219.087L368.709 200.624L383.615 215.464L381.887 218.173L364.023 225.46C363.757 225.568 363.533 225.759 363.383 226.008L357.858 235.372C357.675 235.688 357.625 236.062 357.725 236.411L361.189 248.475L353.645 250.062L342.86 228.027L342.868 228.044ZM338.431 225.268C337.667 225.642 337.152 226.324 336.961 227.088L333.13 229.664L331.659 229.905L329.441 224.919C329.831 224.562 330.039 224.022 329.964 223.457C329.84 222.568 329.042 221.945 328.153 222.02L327.538 220.64V215.264L327.679 214.891L331.402 216.353L333.03 217.616C333.014 217.807 333.03 218.006 333.089 218.206C333.296 218.945 333.969 219.436 334.709 219.436C334.858 219.436 335.008 219.419 335.166 219.369L335.266 219.344L341.398 224.113L340.06 225.011C339.528 224.928 338.963 225.011 338.44 225.26L338.431 225.268ZM301.972 197.101C302.071 197.758 302.636 198.223 303.276 198.223C303.343 198.223 303.409 198.223 303.476 198.206C304.198 198.098 304.697 197.425 304.589 196.702L303.176 187.305L308.17 184.031C308.22 183.998 308.261 183.981 308.303 183.948L313.72 179.578H313.804L315.415 182.835C315.449 182.909 315.499 182.984 315.548 183.042L319.62 188.443C319.661 188.501 319.711 188.56 319.769 188.609L328.843 197.134C328.726 197.658 328.859 198.223 329.233 198.63L329.026 203.715L326.184 211.451L316.853 207.786C316.853 207.786 316.803 207.77 316.778 207.761L290.638 199.253L294.327 193.105L300.75 188.892L301.98 197.084L301.972 197.101ZM356.37 66.4263L384.405 64.6731L384.147 73.1649L382.012 86.2182L376.935 95.2085L374.883 97.8591L360.3 77.4191C360.3 77.4191 360.242 77.3443 360.209 77.3027C357.932 74.5525 356.919 71.5114 356.528 68.7861C356.586 68.6947 356.636 68.6033 356.678 68.4952C356.977 67.7724 356.836 66.9747 356.362 66.4097L356.37 66.4263ZM379.669 97.1777C379.718 97.1113 379.76 97.0448 379.801 96.9783L385.086 87.6224C385.186 87.448 385.252 87.2652 385.277 87.0657L387.479 73.6052C387.487 73.5305 387.496 73.4557 387.504 73.3809L387.853 61.9727L395.372 62.0724C395.613 62.0724 395.838 62.0558 396.054 61.9644L402.46 59.2806H407.877L408.933 59.5881L413.968 81.4904C413.577 81.7646 413.345 82.2466 413.42 82.7617C413.503 83.3516 413.96 83.792 414.516 83.8751L418.363 100.601C418.405 100.784 418.488 100.958 418.604 101.108L424.446 108.76L423.191 113.156L385.452 112.707C385.136 112.2 384.887 111.868 384.779 111.727L376.927 100.717L379.669 97.1611V97.1777ZM483.888 75.9899L471.765 93.3473C471.765 93.3473 471.74 93.3888 471.723 93.4055L467.652 99.9363L464.628 98.3659L457.631 93.7212C457.498 93.6298 457.349 93.5717 457.191 93.5301C457.141 93.5218 454.2 92.8654 451.491 92.2588L455.729 80.2939C455.77 80.1693 455.803 80.0364 455.82 79.8951L456.809 69.8745L483.879 75.9899H483.888ZM458.911 112.167L454.607 115.482L454.873 112.051C454.889 111.835 454.873 111.627 454.798 111.419L451.815 101.856L451.474 94.9675C453.568 95.4329 455.662 95.9065 456.377 96.0643L463.232 100.609C463.232 100.609 463.315 100.659 463.356 100.684L466.256 102.196L461.08 110.505L458.911 112.175V112.167ZM436.734 173.554L416.535 170.67L418.671 162.943C423.49 164.405 428.376 165.859 433.236 167.181C434.084 167.413 434.956 167.696 435.796 167.962C436.552 168.203 437.333 168.452 438.114 168.676L436.734 173.554V173.554ZM410.57 188.352L408.6 202.286L402.668 201.322C401.945 201.206 401.272 201.696 401.155 202.411C401.039 203.133 401.529 203.806 402.244 203.923L408.226 204.895L406.631 216.203L399.751 214.699C399.676 214.683 399.61 214.675 399.535 214.675L385.867 213.977L373.761 201.92L388.642 169.341L413.311 172.864L410.57 188.294C410.57 188.294 410.57 188.327 410.57 188.343V188.352ZM388.044 166.591C387.462 166.508 386.897 166.815 386.656 167.347L371.767 199.934L370.238 198.406L371.725 196.254C371.883 196.029 371.991 195.78 372.041 195.506L377.201 170.787L382.942 144.821L418.039 155.274L416.843 159.603C415.447 159.179 414.068 158.755 412.688 158.332C410.27 157.592 407.861 156.853 405.451 156.121C399.402 154.285 393.378 152.499 387.554 150.77C386.856 150.563 386.116 150.962 385.909 151.659C385.701 152.357 386.1 153.097 386.798 153.305C392.622 155.033 398.638 156.819 404.678 158.647C407.088 159.378 409.498 160.118 411.907 160.857C413.303 161.29 414.716 161.722 416.137 162.154L413.893 170.272L388.044 166.582V166.591ZM360.716 204.995L350.612 195.232L359.511 184.829C363.749 180.492 360.94 170.629 360.608 169.54L359.469 165.569L373.661 167.879L373.204 169.947L368.119 194.284L360.708 205.003L360.716 204.995ZM339.005 163.541C339.129 163.583 339.262 163.616 339.395 163.624L355.83 165.053L357.384 170.479C358.09 172.814 359.544 180.035 357.085 182.494C357.052 182.527 357.027 182.56 356.993 182.594L348.186 192.888L329.499 174.833L338.764 163.466L339.005 163.55V163.541ZM386.798 115.424L422.385 115.931L421.18 120.152C421.163 120.202 421.155 120.252 421.147 120.31L417.707 141.896C417.25 141.755 416.793 141.622 416.336 141.481C411.899 140.143 407.304 138.764 402.742 137.551C402.369 137.451 401.995 137.351 401.621 137.252C399.751 136.762 397.815 136.246 395.987 135.64C395.298 135.407 394.55 135.781 394.317 136.471C394.085 137.16 394.458 137.908 395.148 138.141C397.051 138.781 399.028 139.296 400.939 139.803C401.313 139.902 401.687 140.002 402.053 140.102C406.573 141.307 411.143 142.686 415.563 144.015C416.51 144.298 417.466 144.589 418.422 144.871C419.186 145.104 419.95 145.328 420.723 145.552L419.119 151.344L383.815 140.833L387.52 124.074C388.26 120.626 387.637 117.626 386.789 115.432L386.798 115.424ZM448.068 94.1948L448.467 102.221C448.467 102.363 448.5 102.504 448.541 102.637L450.669 109.458H432.322L427.154 107.954L420.864 99.7203L417.15 83.5511L436.228 80.8091L438.28 91.9265C438.388 92.4998 438.853 92.9402 439.435 92.9983C442.517 93.3307 446.016 93.7378 446.406 93.8126C446.531 93.8375 447.17 93.9871 448.068 94.1865V94.1948ZM420.249 142.653L423.731 120.8L426.656 110.563L430.91 111.801L432.248 123.417C432.272 123.65 432.364 123.874 432.513 124.065L445.6 141.215L443.49 149.067C443.091 148.909 442.684 148.751 442.243 148.618C439.792 147.871 437.274 147.247 434.84 146.649C433.951 146.433 433.062 146.209 432.173 145.984C428.193 144.971 424.188 143.816 420.241 142.644L420.249 142.653ZM436.593 165.427C435.729 165.145 434.832 164.862 433.926 164.613C429.074 163.292 424.196 161.838 419.369 160.376L420.574 156.03L440.041 161.83L438.828 166.117C438.097 165.909 437.358 165.677 436.593 165.427V165.427ZM421.662 152.092L423.266 146.292C426.008 147.09 428.774 147.854 431.533 148.56C432.43 148.785 433.319 149.009 434.217 149.225C436.618 149.815 439.094 150.43 441.479 151.153C441.928 151.286 442.36 151.46 442.8 151.643L441.122 157.891L421.654 152.092H421.662ZM447.868 132.79L446.464 138L434.84 122.753L433.61 112.101H451.483L450.876 119.969L447.868 132.79V132.79ZM452.488 79.3467L448.176 91.5027C447.528 91.3615 447.087 91.2618 446.988 91.2368C446.522 91.1288 442.95 90.73 440.689 90.4807L438.587 79.0808C438.463 78.3829 437.806 77.9176 437.1 78.009L416.544 80.9587L411.824 60.4273L444.362 70.0158C444.545 70.074 444.744 70.0324 444.935 70.0158L453.452 69.5089L452.48 79.3384L452.488 79.3467ZM381.463 114.128C381.463 114.128 381.513 114.203 381.546 114.236C381.58 114.278 384.637 118.1 383.541 123.193L379.901 139.636C371.634 137.094 370.271 136.77 369.831 136.728C369.889 136.728 369.922 136.737 369.93 136.737C369.399 136.654 365.41 135.748 360.516 134.618L360.757 131.693L368.393 111.735L374.301 104.091L381.463 114.136V114.128ZM369.598 140.8C369.473 140.8 369.39 140.783 369.374 140.775C370.014 140.899 374.517 142.254 379.012 143.633L374.384 164.572L358.448 161.979L358.29 161.414L360.176 138.731C368.285 140.6 369.316 140.783 369.598 140.8V140.8ZM354.908 161.439C354.908 161.489 354.908 161.539 354.908 161.589L339.885 160.284L332.615 157.825L334.775 131.361L346.416 135.524C346.491 135.548 346.566 135.573 346.641 135.59C350.745 136.554 354.11 137.335 356.869 137.975L354.916 161.447L354.908 161.439ZM334.692 126.99C334.651 126.974 334.609 126.965 334.568 126.949L333.521 126.65C333.521 126.65 333.512 126.65 333.504 126.65L327.763 125.013L329.532 121.88C329.532 121.88 329.541 121.864 329.549 121.855L336.753 108.652C337.958 106.467 339.187 104.257 340.384 102.113C342.511 98.2911 344.721 94.3361 346.832 90.4143C347.604 88.9768 349.067 88.2041 350.562 88.4533C350.803 88.4949 351.51 88.6112 351.385 90.7632L339.005 128.544L334.701 127.007L334.692 126.99ZM330.77 130.114L328.552 157.31L322.827 156.936L323.243 153.155C323.243 153.08 323.193 153.006 323.193 152.931V144.647C323.193 144.647 323.251 144.564 323.251 144.522L323.085 141.439C323.118 141.182 323.11 140.916 323.043 140.667L322.727 134.767L323.176 133.114L325.694 128.66L330.77 130.106V130.114ZM322.461 160.284L329.192 160.725C329.499 160.966 329.873 161.123 330.288 161.157C330.347 161.157 330.405 161.157 330.455 161.157C330.779 161.157 331.078 161.082 331.352 160.949L335.382 162.312L324.439 175.747H320.758L322.461 160.284V160.284ZM316.728 179.112H325.237C325.743 179.112 326.217 178.83 326.541 178.439L327.364 177.434L358.772 207.786L352.797 216.428L343.682 222.551L338.057 218.181L342.096 213.752C342.17 213.669 342.237 213.578 342.295 213.486L345.178 208.692C345.618 207.961 345.444 207.022 344.771 206.499L331.493 196.179C331.493 196.179 331.477 196.17 331.468 196.162C331.394 195.988 331.294 195.822 331.153 195.689L321.647 186.756L317.717 181.538L316.537 179.137L316.737 179.104L316.728 179.112ZM331.518 204.421C331.568 204.288 331.651 204.155 331.659 204.022L331.784 200.666L341.514 208.235L339.486 211.609L335.764 215.688L335.091 215.879L332.848 214.134C332.748 214.06 332.64 213.993 332.524 213.952L328.569 212.398L331.518 204.421V204.421ZM363.765 247.919L360.408 236.211L365.419 227.72L380.682 221.496L389.049 242.601L381.064 244.279L363.774 247.927L363.765 247.919ZM409.132 217.242L410.819 205.31L417.009 206.316C417.067 206.324 417.117 206.332 417.175 206.332L425.335 206.598L417.109 222.551L409.124 217.242H409.132ZM426.681 203.998L417.35 203.69L411.184 202.693L413.162 188.726L415.912 173.229L435.987 176.096L429.821 197.907L426.681 203.998ZM443.249 162.785L448.799 164.439C448.483 164.796 448.134 165.145 447.744 165.452C446.24 166.657 444.512 167.097 442.102 166.815L443.24 162.785H443.249ZM444.337 158.847L445.982 152.715C448.292 153.355 449.472 154.551 450.378 157.102C450.793 158.273 450.86 159.511 450.635 160.716L444.337 158.838V158.847ZM473.651 103.06C473.651 103.06 473.585 103.019 473.551 103.002L469.979 101.141L473.925 94.8097L486.638 76.5965L494.39 78.3497L487.56 108.262L486.455 111.145L473.651 103.052V103.06ZM473.576 70.2069L483.672 31.8196L509.188 39.7463L504.934 49.7752C504.934 49.7752 504.909 49.825 504.901 49.85L495.362 75.1258L473.568 70.2069H473.576ZM471 69.6253L456.427 66.3349L452.596 53.0074L450.627 21.558L481.146 31.0385L471 69.6253ZM413.353 45.8118C413.519 45.9281 413.702 46.0029 413.893 46.0279L437.673 49.8666C437.673 49.8666 437.707 49.8666 437.723 49.8666L449.123 51.2625L449.256 53.3813C449.256 53.5059 449.281 53.6222 449.314 53.7386L452.887 66.177L445.027 66.659L410.727 56.5221C410.42 56.198 409.946 56.0401 409.481 56.1482L408.584 55.8823C408.426 55.8324 408.268 55.874 408.11 55.874H404.695L404.155 51.2043L405.576 40.3861L413.361 45.7952L413.353 45.8118ZM321.655 127.505L319.495 131.327C319.412 131.477 319.337 131.635 319.296 131.801L318.681 134.02C318.623 134.236 318.573 134.452 318.581 134.676L318.739 137.684L300.617 128.494L302.844 122.129L321.655 127.497V127.505ZM280.543 153.155C280.584 153.188 280.626 153.213 280.676 153.238L293.713 160.55L303.982 166.931L311.535 174.949L312.25 176.404C312.142 176.462 312.034 176.52 311.934 176.603L306.234 181.231L302.611 183.607L302.412 182.27C302.362 181.954 302.204 181.655 301.955 181.455L292.466 173.529C292.466 173.529 292.408 173.487 292.383 173.462L274.602 160.916L280.543 153.155V153.155ZM278.117 177.126L282.57 169.773L290.813 175.589L299.869 183.159L300.177 185.203L292.125 190.487C291.909 190.628 291.727 190.82 291.594 191.036L287.364 198.181L281.407 196.245L275.483 193.91L278.1 177.126H278.117ZM289.433 201.638L315.914 210.254L325.262 213.927L325.029 214.566C324.979 214.708 324.888 214.866 324.888 215.015V220.898C324.888 221.081 324.987 221.264 325.062 221.43L325.478 222.369L316.903 223.565L293.654 222.045C293.654 222.045 293.58 222.103 293.546 222.103H287.423V208.069L289.433 201.638ZM284.93 225.468H293.496L316.861 226.963C316.978 226.963 317.086 226.905 317.202 226.889L326.907 225.551L329.026 230.312L304.306 234.367L265.628 239.377L259.812 239.02V227.379H273.862C273.962 227.379 274.054 227.371 274.153 227.354L284.938 225.46L284.93 225.468ZM410.196 260.108L397.425 244.279L400.059 243.723C400.333 243.664 400.599 243.54 400.806 243.349L406.988 238.023L420.981 244.853L410.204 260.1L410.196 260.108ZM422.518 242.676L409.157 236.153L417.449 229.007C417.616 228.866 417.748 228.692 417.848 228.501L418.729 226.789L428.941 233.577L422.51 242.667L422.518 242.676ZM430.428 231.4L419.95 224.429L428.691 207.471L439.867 214.824L430.428 231.392V231.4ZM441.18 212.531L429.904 205.111L432.896 199.303C432.946 199.203 432.987 199.095 433.02 198.987L441.387 169.391C442.06 169.49 442.75 169.549 443.44 169.549C445.459 169.549 447.511 169.042 449.414 167.513C450.245 166.848 450.951 166.084 451.533 165.253L457.216 166.948L453.784 183.466L445.733 204.546L441.18 212.531ZM496.692 141.356L495.296 142.636L482.442 131.369L483.638 129.782C483.755 129.632 483.846 129.458 483.913 129.283L489.031 115.889L494.108 119.097C494.108 119.097 494.124 119.105 494.133 119.113L501.203 123.368C501.253 123.658 501.386 123.933 501.627 124.14C501.877 124.365 502.192 124.473 502.5 124.473C502.641 124.473 502.782 124.448 502.915 124.406L509.546 128.394L496.692 141.356V141.356ZM516.176 121.714L511.465 126.467L504.851 122.487L515.985 109.857C516.085 109.741 516.16 109.616 516.218 109.475L523.181 92.184C523.214 92.101 523.239 92.0179 523.255 91.9348L524.527 85.163L537.131 88.013L534.539 95.2833L516.176 121.722V121.714ZM543.089 71.2704L538.261 84.814L525.142 81.8477L528.523 63.7675L533.384 47.2576L548.299 51.8857L543.089 71.2621V71.2704ZM537.563 29.41C537.771 29.8753 538.228 30.1993 538.777 30.1993H540.472C540.58 30.1993 540.688 30.1245 540.796 30.0996L546.67 28.5708C547.16 28.4461 547.542 28.0556 547.642 27.5571L553.915 -3.20264L562.191 -1.93969L561.078 4.90689L551.655 39.497L549.753 46.5596L534.788 41.9149L537.572 29.4183L537.563 29.41ZM530.866 46.4765L525.981 63.0944C525.964 63.136 525.956 63.1775 525.948 63.2274L522.566 81.2744L499.4 76.0398L508.723 51.3373L513.119 40.9677L530.858 46.4765H530.866ZM499.4 -16.9706C499.45 -17.0121 499.5 -17.0537 499.542 -17.0952L500.09 -17.6519L528.266 -7.82242L522.125 8.77054L484.478 -4.93921L499.4 -16.9706V-16.9706ZM456.352 11.3962L477.656 0.511453C477.756 0.461599 477.855 0.395125 477.947 0.320344L482.076 -3.01154L521.211 11.2466L520.63 12.8253L511.382 34.628L452.364 16.2984L456.36 11.3879L456.352 11.3962ZM426.996 14.2129L418.289 23.9759L404.454 36.4061L393.893 29.0776L394.309 27.7316L404.878 8.20554L426.805 14.163L427.005 14.2212L426.996 14.2129ZM401.538 7.29155L391.26 26.2692C391.21 26.3689 391.16 26.4686 391.127 26.5766L385.003 46.6344C384.961 46.7757 384.936 46.9252 384.928 47.0748L384.729 53.6389L359.361 54.0709L367.629 31.4955C367.629 31.4955 367.637 31.4706 367.646 31.454L378.082 0.9269L401.529 7.29155H401.538ZM215.966 57.8432L189.925 48.936L188.197 45.2219L194.504 44.2497C194.504 44.2497 194.554 44.2747 194.587 44.2664L208.67 41.2336H220.727L218.483 49.7503L215.966 57.8349V57.8432ZM155.394 106.941L162.157 93.098C162.232 92.9402 162.273 92.774 162.29 92.6078L162.381 91.1621L179.705 98.7814L171.446 113.189L155.394 106.941V106.941ZM162.564 88.3536L162.788 84.8556L166.453 84.3736L175.485 87.7305L195.509 96.1806L194.321 98.0668L191.645 99.9778L186.344 98.8146L162.548 88.3453L162.564 88.3536ZM121.85 72.9322L129.993 77.0036C130.076 77.0452 130.159 77.0784 130.251 77.1033L153.906 83.227L160.146 84.8722L159.988 87.2236L157.537 86.1435C157.487 86.1185 157.429 86.1019 157.371 86.0853L129.038 77.8345L120.762 73.4557L121.85 72.9322V72.9322ZM196.938 93.9289L176.49 85.2959C176.49 85.2959 176.457 85.2793 176.44 85.271L167.076 81.7896C166.876 81.7148 166.66 81.6899 166.444 81.7148L162.34 82.2466C162.149 82.1053 161.916 82.0222 161.658 82.0056C161.318 81.9807 161.002 82.097 160.753 82.2881L154.579 80.6595L144.924 78.1586L148.273 68.6282L166.793 59.4136L207.416 76.3555L203.303 83.7837L196.947 93.9123L196.938 93.9289ZM208.695 74.0539L169.918 57.8764L177.578 54.0709L189.552 51.6032L215.185 60.3691L213.789 64.8559L208.695 74.0539ZM184.076 42.6378L187.217 49.3847L176.872 51.5118C176.764 51.5367 176.656 51.5699 176.548 51.6198L166.685 56.5221L161.293 54.2703L181.683 44.715C181.874 44.6236 182.057 44.5073 182.206 44.3578L184.068 42.6212L184.076 42.6378ZM214.013 17.4783C214.08 17.5032 214.146 17.5282 214.221 17.5448L222.571 19.5223V34.2208L221.416 38.5997H208.521C208.429 38.5997 208.33 38.5498 208.238 38.5664L194.055 41.6241L187.034 42.7209L186.112 40.7434L189.261 37.8103C189.543 37.5444 189.751 37.2038 189.842 36.8215L192.883 24.973C192.883 24.973 192.9 24.9065 192.908 24.8816L196.008 9.90056L214.013 17.4783V17.4783ZM148.788 37.6524L143.387 26.319L165.929 16.0159L188.438 7.58237L191.296 8.73731L182.555 20.0707L149.602 37.2702L148.788 37.6607V37.6524ZM101.793 28.7536L97.4802 26.8757L113.732 -12.4754C114.788 -12.1431 115.909 -11.9603 117.064 -11.9603C118.469 -11.9603 119.815 -12.2262 121.061 -12.7081L138.875 24.6739L117.006 34.495L101.784 28.7536H101.793ZM95.9596 26.211L112.195 -13.0903C112.337 -13.0238 112.469 -12.9573 112.611 -12.8992L96.3834 26.3938L95.9596 26.211ZM183.827 5.71285L164.691 12.8835C164.691 12.8835 164.616 12.9084 164.583 12.925L141.933 23.278L123.986 -14.3948C125.033 -15.234 125.93 -16.256 126.62 -17.4192L183.827 5.70454V5.71285ZM117.081 -30.0738C120.953 -30.0738 124.11 -26.9247 124.11 -23.0444C124.11 -19.1641 120.961 -16.015 117.081 -16.015C113.201 -16.015 110.052 -19.1641 110.052 -23.0444C110.052 -26.9247 113.201 -30.0738 117.081 -30.0738V-30.0738ZM75.1291 -39.1804L106.529 -26.5009C106.171 -25.4125 105.98 -24.2575 105.98 -23.0527C105.98 -19.106 108.049 -15.6411 111.157 -13.6636L94.8712 25.754L53.1686 7.57406L75.1291 -39.1804V-39.1804ZM51.8142 34.8773C51.7643 34.8523 51.7145 34.8274 51.6646 34.8025L42.3503 30.5815L51.7311 10.6151L95.619 29.7423C95.619 29.7423 95.6439 29.7589 95.6522 29.7589C95.6522 29.7589 95.6688 29.7589 95.6771 29.7589L100.496 31.8611C100.496 31.8611 100.546 31.886 100.571 31.8943L107.958 34.6861L100.579 45.3382H93.0266L63.8539 40.3279C63.6461 40.2947 63.4384 40.2448 63.239 40.3113L60.9873 41.0093L58.9599 39.0816C58.8602 38.9902 58.7605 38.9071 58.6441 38.8406L51.7976 34.8773H51.8142ZM12.945 61.0421L25.9651 66.6673L17.0246 85.9108L3.44783 79.7123L12.945 61.0421ZM52.2213 101.972L19.4342 87.0076L28.3996 67.7142L65.4076 83.6923L52.2296 101.98L52.2213 101.972ZM75.3451 80.8839H71.7557V79.3218C71.7557 79.2387 71.8055 79.1556 71.7972 79.0725L70.177 67.7807C70.177 67.7807 70.1687 67.7308 70.1603 67.7059L67.0362 51.8524C67.0196 51.7777 67.0029 51.7029 66.978 51.6281L64.5767 44.6652C64.4853 44.4076 64.3441 44.1833 64.1447 44.0005L63.2141 43.1114L63.7375 42.9535L92.7108 47.9057C92.7856 47.914 92.8604 47.9805 92.9352 47.9805H98.7681L81.7929 72.4835C81.6516 72.6913 81.5519 72.9322 81.5104 73.1815L80.4219 80.1859L75.3451 80.8839V80.8839ZM117.953 52.4174C117.729 52.5255 117.53 52.675 117.355 52.8495L109.428 61.1668C109.428 61.1668 109.412 61.1917 109.403 61.2L96.3668 75.3668L87.659 79.1972L83.895 79.7123L84.7675 74.0789L102.856 47.9805C103.587 47.9805 104.177 47.3905 104.177 46.6593C104.177 46.4932 104.144 46.3353 104.086 46.194L111.207 35.9159L116.491 37.91C116.682 37.9848 116.882 38.018 117.081 38.018C117.314 38.018 117.555 37.9682 117.771 37.8685L140.338 27.7316L145.763 39.1231L117.937 52.4174H117.953ZM150.566 41.3582L151.414 40.9511C151.414 40.9511 151.455 40.9262 151.48 40.9179L184.865 23.494C185.131 23.361 185.356 23.1616 185.538 22.929L190.491 16.5062L188.937 24.0175L186.054 35.2428L179.681 41.1837L155.809 52.3676L150.566 41.3582V41.3582ZM135.909 66.202L158.086 55.8158L163.578 58.1091L146.628 66.5426C146.32 66.6922 146.087 66.9664 145.971 67.2905L142.373 77.5354L131.073 74.6106L124.883 71.5114L135.909 66.2103V66.202ZM107.359 79.92L117.82 74.8931L127.941 80.2524C128.024 80.2939 128.107 80.3272 128.19 80.3521L156.565 88.6112L159.822 90.0403L159.681 92.184L152.901 106.068L120.662 96.0726C120.662 96.0726 120.621 96.0643 120.604 96.056L104.618 91.9431L98.1366 85.5535L107.359 79.9117V79.92ZM69.1716 100.169L81.5851 90.1733L92.204 88.9602C92.5031 88.9269 92.7856 88.8272 93.0349 88.6777L95.8101 86.9827L103.014 94.0785C103.18 94.2447 103.388 94.361 103.612 94.4192L119.914 98.6152L151.729 108.478L142.024 128.345C141.7 129.001 141.975 129.79 142.631 130.114C142.814 130.206 143.013 130.247 143.213 130.247C143.703 130.247 144.168 129.973 144.401 129.508L154.247 109.342L179.963 119.346C179.963 119.346 179.98 119.346 179.988 119.354L189.593 122.836C189.734 122.886 189.892 122.919 190.042 122.919C190.092 122.919 190.133 122.919 190.183 122.919L196.905 122.196C197.628 122.121 198.16 121.465 198.077 120.742C198.002 120.019 197.345 119.496 196.622 119.57L190.2 120.26L180.894 116.887L173.939 114.178L182.14 99.8781L185.414 101.316C185.497 101.349 185.58 101.374 185.663 101.399L191.67 102.72C191.762 102.736 191.861 102.753 191.953 102.753C192.227 102.753 192.493 102.67 192.717 102.504L196.082 100.102C196.224 100.003 196.34 99.8781 196.431 99.7286L205.555 85.1962C205.555 85.1962 205.58 85.1547 205.588 85.1298L210.399 76.4386C210.399 76.4386 210.415 76.4054 210.424 76.3971L216.157 66.0358C216.198 65.961 216.232 65.8779 216.257 65.7948L217.686 61.2415L240.278 68.9689C240.419 69.0187 240.56 69.0436 240.701 69.0436C241.25 69.0436 241.765 68.6947 241.948 68.1463C242.18 67.4566 241.815 66.7088 241.125 66.4679L218.475 58.7239L221.051 50.5396C221.051 50.5396 221.051 50.5064 221.051 50.4814L223.593 40.8929C223.851 40.652 224.009 40.3113 224.009 39.9374C224.009 39.8045 223.992 39.6715 223.951 39.5552L225.222 34.7526C225.255 34.6446 225.205 34.5283 225.205 34.4119V20.1704L232.417 21.8821L252.542 28.3547C252.592 28.3713 252.633 28.3797 252.683 28.388L260.369 29.95C260.46 29.9667 260.543 29.975 260.635 29.975C261.009 29.975 261.374 29.8171 261.623 29.5263L265.229 25.4466C265.354 25.3053 265.454 25.1309 265.504 24.9481L284.041 -37.4937L318.29 -26.2018C318.29 -26.2018 318.357 -26.1769 318.39 -26.1686L364.563 -12.9075C367.654 -11.7442 375.855 -7.51499 374.741 -2.70411C374.667 -2.38837 374.658 -2.08094 374.691 -1.77351L363.782 30.1411L353.105 59.3056C353.105 59.3056 353.08 59.3637 353.072 59.397C353.013 59.5881 352.407 61.5739 352.241 64.4654L326.018 53.5558C325.486 53.3314 324.888 53.348 324.364 53.5973C323.841 53.8466 323.45 54.2953 323.284 54.852L319.711 66.6091L288.129 56.9791C287.049 56.6467 285.91 57.2616 285.578 58.3334C285.246 59.4136 285.861 60.5519 286.932 60.8843L318.523 70.5143L314.518 83.6757C314.518 83.6757 314.518 83.7006 314.51 83.7172L304.73 118.465L260.111 105.728C259.571 105.57 258.981 105.653 258.499 105.944C258.017 106.234 257.668 106.716 257.552 107.265L254.345 122.154L235.55 115.258C234.869 115.009 234.104 115.358 233.855 116.039C233.606 116.72 233.955 117.485 234.636 117.734L253.78 124.755L248.545 149.042C248.304 150.147 249.01 151.227 250.107 151.468C251.212 151.709 252.292 151.003 252.533 149.906L257.652 126.176L270.423 130.862C270.423 130.862 270.472 130.879 270.506 130.887L274.643 132.117L273.929 133.795L266.293 149.233L257.02 163.741L246.36 175.83C245.878 176.379 245.928 177.21 246.476 177.691C246.725 177.916 247.041 178.024 247.349 178.024C247.714 178.024 248.08 177.874 248.337 177.575L259.064 165.402C259.106 165.353 259.147 165.294 259.189 165.245L268.553 150.596C268.553 150.596 268.603 150.513 268.628 150.471L276.314 134.942C276.314 134.942 276.33 134.9 276.347 134.875L277.203 132.881L280.892 133.978L285.993 136.911L285.021 140.426L280.302 149.167L256.721 179.968L252.733 184.754C252.475 185.061 252.376 185.469 252.45 185.859C252.525 186.25 252.774 186.582 253.132 186.773L262.255 191.576C262.296 191.601 262.338 191.617 262.388 191.634L273.555 196.038L280.476 198.771C280.476 198.771 280.526 198.788 280.551 198.796L286.251 200.649L284.182 207.371C284.132 207.529 284.049 207.695 284.049 207.861V222.244L273.696 224.064H258.233C257.303 224.064 256.43 224.695 256.43 225.626V238.862L238.832 237.782L226.95 231.957C226.194 231.592 225.297 231.716 224.673 232.281L191.853 262.177L187.316 257.565L196.174 249.796C196.174 249.796 196.199 249.772 196.207 249.763L213.623 233.37C213.747 233.253 213.847 233.112 213.922 232.954L216.905 226.332L220.004 220.482C220.203 220.1 220.212 219.643 220.004 219.253C219.804 218.871 219.431 218.605 218.998 218.546C214.038 217.907 208.155 217.159 206.593 217.001C205.438 216.27 199.963 212.016 195.135 208.177L192.767 205.792L196.132 203.433L212.351 193.819C212.983 193.445 213.182 192.639 212.817 192.008C212.451 191.376 211.637 191.177 211.005 191.542L207.225 193.786C195.285 188.776 191.72 187.371 190.549 186.981C188.804 185.352 174.77 169.748 165.547 159.412C165.065 158.863 164.226 158.822 163.686 159.304C163.137 159.786 163.096 160.625 163.578 161.165C163.636 161.231 169.868 168.211 176.074 175.099C179.722 179.145 182.647 182.369 184.774 184.688C188.762 189.033 189.136 189.432 189.726 189.465C190.914 189.864 198.509 193.005 204.408 195.464L194.761 201.181C194.761 201.181 194.703 201.214 194.678 201.239L190.898 203.89L181.492 194.434L180.237 193.113C180.138 192.947 179.996 192.805 179.847 192.697L162.631 174.609L158.019 167.048C157.936 166.906 157.828 166.79 157.703 166.69L157.479 166.516L155.352 164.862C155.402 164.738 155.435 164.613 155.452 164.472L156.291 154.26C156.349 153.529 155.809 152.898 155.086 152.839C154.363 152.781 153.723 153.321 153.657 154.044L152.926 162.968L152.544 162.669C152.427 162.577 152.286 162.503 152.145 162.461L145.664 160.342C145.398 160.251 145.107 160.251 144.833 160.342L138.585 162.428L133.724 163.076L124.642 160.11C124.642 160.11 124.601 160.101 124.576 160.093L117.513 158.182L119.258 151.867C119.449 151.161 119.042 150.438 118.336 150.239C117.629 150.048 116.906 150.455 116.707 151.161L114.954 157.492L93.9489 151.809C93.9489 151.809 93.8824 151.801 93.8408 151.792L77.871 148.859C77.7464 148.834 77.6218 148.859 77.4888 148.876L74.938 149.158L78.3613 135.723C78.5358 135.017 78.1619 134.294 77.4556 134.119C76.7493 133.945 76.0182 134.369 75.8354 135.075L72.1877 149.466L68.9057 149.832H68.1579L70.1188 135.573C70.2185 134.85 69.7117 134.186 68.9888 134.086C68.2659 133.986 67.6012 134.493 67.5015 135.216L65.4907 149.832H60.8793L53.9579 149.1L57.2649 118.474L69.155 100.177L69.1716 100.169ZM190.474 186.931C190.25 186.856 190.125 186.831 190.05 186.823C190.225 186.84 190.374 186.881 190.474 186.931ZM51.1495 183.657L60.6383 185.377C60.6383 185.377 60.6632 185.394 60.6798 185.402L67.6926 186.449L69.4956 197.01C69.4956 197.06 69.5122 197.101 69.5289 197.151L73.6003 211.409L78.5191 232.398C78.5773 232.655 78.7186 232.888 78.9097 233.071L81.7929 235.713C82.0421 235.937 82.3579 236.062 82.6819 236.062C82.8232 236.062 82.9644 236.037 83.0974 235.995L85.6233 235.156C85.8975 235.065 86.1384 234.882 86.2963 234.641L88.1825 231.849L93.1761 245.758C93.2011 245.816 93.226 245.875 93.2509 245.933L94.9293 249.098C94.4474 249.614 94.4557 250.411 94.9459 250.918C95.2035 251.184 95.5442 251.317 95.8932 251.317C95.9596 251.317 96.0261 251.309 96.0926 251.3L98.3194 255.513L89.9606 258.13C89.8941 258.139 89.8193 258.155 89.7528 258.18C89.6947 258.197 89.6448 258.222 89.595 258.247L86.2132 259.302C86.1301 259.327 86.0471 259.36 85.9723 259.402L77.6218 264.021C77.4224 263.839 77.198 263.689 76.9571 263.573L50.169 197.658L51.1412 183.666L51.1495 183.657ZM79.5993 280.889C79.7406 281.229 79.9649 281.528 80.2557 281.744L87.2186 287.029C87.4513 287.203 87.7255 287.328 88.008 287.394L99.3414 289.912L92.3535 299.21C92.2954 299.293 92.2455 299.376 92.204 299.467L90.4259 303.456L85.1746 295.778C85.1912 295.687 85.2078 295.587 85.2078 295.487C85.2078 294.823 84.7176 294.283 84.0861 294.183L83.4879 293.302L72.786 270.81L75.0045 269.605L79.591 280.889H79.5993ZM56.9491 279.434L69.8363 272.422L80.1809 294.166H75.9683C75.3617 294.166 74.8383 294.515 74.6887 295.105L73.8495 298.437L55.2624 294.307L49.6456 285.134L56.9491 279.434V279.434ZM69.2048 316.949L27.469 302.45L47.5434 286.78L53.3015 296.177C53.4926 296.484 53.7917 296.7 54.1407 296.775L73.2014 301.004L69.1965 316.949H69.2048ZM24.3864 321.511L14.7812 310.169L24.4695 304.752C24.5941 304.685 24.7104 304.602 24.8184 304.519L24.9846 304.386L68.5484 319.525L64.369 336.168L24.3781 321.511H24.3864ZM85.3242 314.889C85.2411 315.072 85.1995 315.279 85.2078 315.479L85.7895 330.676H77.5221L68.9057 329.039L71.091 320.339C71.091 320.339 71.1408 320.339 71.1657 320.339C71.7141 320.339 72.221 319.999 72.4121 319.45C72.6364 318.802 72.329 318.104 71.7224 317.822L76.9986 296.8H81.8178L88.8222 307.053L85.3325 314.88L85.3242 314.889ZM103.953 317.523L92.6111 306.655L92.1707 306.015L94.5554 300.68L102.175 290.543L102.806 290.685L129.893 307.319C129.943 307.352 129.993 307.377 130.051 307.402C131.962 308.358 133.956 308.89 135.984 308.989L130.384 328.64L103.961 317.514L103.953 317.523ZM153.15 321.777L139.025 330.011L132.984 329.147L138.759 308.873C140.629 308.615 142.523 308.001 144.392 307.028C145.34 306.538 146.196 305.998 146.943 305.475L157.014 318.752L153.158 321.777H153.15ZM174.778 304.81L159.083 317.124L149.004 303.83C149.561 303.339 149.943 302.949 150.126 302.749L174.87 282.75L184.383 295.911L174.778 304.818V304.81ZM201.583 279.966L186.336 294.091L176.93 281.08L178.841 279.534C178.841 279.534 178.9 279.484 178.933 279.459L192.161 267.411L202.738 278.72L201.583 279.966V279.966ZM213.589 271.956L218.143 270.851L231.063 271.524C231.063 271.524 231.121 271.583 231.146 271.583H236.464L233.963 302.351C233.032 302.525 232.16 302.866 231.37 303.331L207.823 278.171L213.589 271.948V271.956ZM231.47 310.319C231.47 308.1 233.273 306.297 235.492 306.297C237.71 306.297 239.513 308.1 239.513 310.319C239.513 312.537 237.71 314.34 235.492 314.34C233.273 314.34 231.47 312.537 231.47 310.319ZM239.015 303.015C238.483 302.758 237.918 302.558 237.336 302.425L239.787 272.247L260.859 284.52L239.015 303.024V303.015ZM266.659 284.004L282.263 270.785L306.425 296.983L301.265 304.162L266.65 284.004H266.659ZM309.948 297.839C309.948 297.839 309.948 297.839 309.956 297.83L330.529 269.206C331.452 268.035 332.15 266.871 332.64 265.733L346.092 256.111L349.765 254.657L353.761 262.825L360.865 277.922L331.41 316.825L308.07 300.489L309.965 297.855L309.948 297.839ZM373.528 307.469L358.099 317.39C358.099 317.39 358.024 317.44 357.99 317.464L345.477 326.671L334.152 318.744L362.993 280.656L384.114 294.781L373.52 307.469H373.528ZM548.024 327.003L543.513 328.723L529.678 319.525L533.384 310.036C533.401 309.986 533.426 309.928 533.434 309.878L536.882 297.523L539.84 291.275L548.382 281.811L551.057 280.29L550.417 294.083C550.351 294.266 550.318 294.457 550.318 294.656C550.318 294.806 550.334 294.947 550.376 295.08L548.905 326.812L548.315 326.928C548.224 326.945 548.132 326.97 548.049 327.003H548.024ZM555.602 277.69L578.02 276.211L581.077 286.015L582.025 292.978H553.816L554.497 278.321L555.594 277.698L555.602 277.69ZM569.727 324.037C569.661 324.045 569.594 324.062 569.528 324.078L561.427 326.43L555.195 326.771L552.27 326.513L553.675 296.327H582.44L577.521 322.782L569.736 324.029L569.727 324.037ZM595.369 310.028C589.918 313.858 585.506 317.88 582.191 322.043C582.158 322.043 582.133 322.043 582.099 322.051L581.044 322.217L585.822 296.518C585.83 296.459 585.838 296.393 585.838 296.327H604.459C605.672 298.105 607.001 299.717 608.356 301.146C603.952 304.046 599.041 307.444 595.369 310.02V310.028ZM616.125 296.335C614.803 297.058 613.125 298.08 611.255 299.268C610.375 298.371 609.502 297.382 608.663 296.335H616.125ZM599.465 270.253C599.448 270.428 599.44 270.594 599.424 270.768C599.241 270.901 599.075 271.084 598.958 271.292C598.568 271.981 598.717 272.829 599.274 273.352C599.066 277.98 599.241 281.877 599.806 285.193C600.279 288.009 601.227 290.61 602.448 292.978H585.423L584.393 285.425C584.376 285.334 584.359 285.242 584.326 285.151L580.87 274.075C580.853 273.984 580.82 273.901 580.787 273.818L580.305 272.28C580.222 269.987 580.163 267.328 580.23 266.531C580.413 266.148 580.737 265.384 581.36 263.747L581.966 262.459L599.457 270.261L599.465 270.253ZM580.928 253.029V256.693L578.269 262.351C578.252 262.393 578.294 262.434 578.269 262.484C577.878 263.506 577.372 264.769 577.214 265.068C576.898 265.542 576.707 266.024 576.956 272.629C576.956 272.729 576.973 272.821 576.998 272.912L554.987 274.366C554.73 274.383 554.489 274.457 554.264 274.582L551.988 275.878L546.462 279.019C546.304 279.11 546.163 279.218 546.047 279.351L537.156 289.197C537.048 289.322 536.957 289.455 536.882 289.605L533.758 296.21C533.716 296.293 533.683 296.385 533.658 296.476L530.202 308.881L526.795 317.614C526.795 317.614 526.712 317.573 526.679 317.556L497.572 301.229V285.608L549.711 262.692C550.218 265.891 551.606 270.644 555.453 270.918C555.494 270.918 555.536 270.918 555.577 270.918C556.45 270.918 557.189 270.245 557.256 269.356C557.322 268.433 556.624 267.627 555.702 267.561C554.248 267.453 553.251 264.204 552.91 261.279L580.238 249.265L580.911 252.995L580.928 253.029ZM606.204 217.549L599.664 234.732L582.639 243.781L491.922 283.647C491.864 283.672 491.798 283.705 491.74 283.738L484.536 287.793C484.37 287.885 484.228 288.001 484.095 288.126L476.252 295.969C476.194 296.027 476.144 296.086 476.094 296.144L467.727 306.696L461.537 307.585L463.747 300.29C464.769 297.224 464.769 296.717 464.769 296.526C464.769 296.302 464.769 295.828 463.099 290.901C463.024 290.685 462.899 290.502 462.733 290.344L457.582 285.658L453.593 279.401C453.203 278.786 452.388 278.604 451.765 278.994C451.15 279.385 450.968 280.199 451.358 280.822L455.355 287.087L452.887 292.646C452.887 292.646 452.854 292.679 452.845 292.704L450.66 298.204C450.602 298.354 450.511 298.52 450.511 298.686V303.173C450.511 303.904 451.101 304.494 451.832 304.494C452.563 304.494 453.153 303.904 453.153 303.173V298.936L455.263 293.693L457.366 289.04L460.697 292.064C461.312 293.884 461.969 295.944 462.11 296.543C462.01 297.008 461.595 298.371 461.229 299.467C461.229 299.476 461.229 299.492 461.221 299.501L458.653 307.992L443.091 310.236L422.46 308.848L402.959 300.722L391.102 292.795L393.445 289.987C393.445 289.987 393.495 289.92 393.52 289.887L409.215 268.591C409.215 268.591 409.232 268.566 409.24 268.558L432.771 235.272C432.954 235.173 433.128 235.031 433.253 234.84C433.361 234.674 433.427 234.491 433.452 234.3L433.577 234.126C433.619 234.068 433.652 234.018 433.685 233.96L449.381 206.415C449.43 206.324 449.48 206.233 449.514 206.133L457.681 184.754C457.723 184.654 457.748 184.546 457.773 184.438L458.894 179.021L461.944 176.453L476.293 188.127L463.016 207.521L455.812 217.849C455.779 217.89 455.754 217.932 455.729 217.981L451.483 225.908C451.142 226.548 451.383 227.354 452.023 227.695C452.222 227.803 452.438 227.853 452.646 227.853C453.12 227.853 453.577 227.603 453.809 227.155L458.014 219.294L465.184 209.024L478.346 189.806L480.955 191.933C481.196 192.132 481.495 192.232 481.785 192.232C482.168 192.232 482.55 192.066 482.808 191.742C483.265 191.177 483.181 190.346 482.616 189.881L479.658 187.479C479.658 187.056 479.459 186.632 479.085 186.374C478.769 186.158 478.404 186.1 478.063 186.175L463.996 174.725L469.081 170.446L526.197 185.602C526.363 192.166 527.892 202.535 535.353 208.559C538.693 211.26 542.366 212.248 546.047 212.248C550.816 212.248 555.61 210.587 559.74 208.817L560.604 208.443C567.742 205.385 574.497 202.494 582.016 200.956C582.349 201.098 582.698 201.231 583.047 201.372L581.36 209.282L574.488 230.711L552.785 212.514C552.071 211.916 551.016 212.007 550.417 212.722C549.819 213.436 549.911 214.492 550.625 215.09L574.231 234.882C574.231 234.882 574.231 234.882 574.239 234.89L576.267 236.585C576.574 236.843 576.964 236.976 577.347 236.976C577.687 236.976 578.028 236.876 578.319 236.668L589.004 229.082C589.76 228.542 589.943 227.495 589.403 226.739C588.863 225.983 587.816 225.8 587.06 226.34L577.43 233.179L577.272 233.046L584.584 210.229C584.6 210.179 584.617 210.121 584.625 210.063L586.229 202.543C590.151 203.898 594.87 205.227 600.554 206.424L607.749 208.069L606.22 217.508L606.204 217.549Z" fill="white" stroke="black" stroke-width="0.25" stroke-miterlimit="10"/>
<path d="M322.931 164.566C327.525 151.419 320.59 137.036 307.443 132.442C294.295 127.848 279.912 134.782 275.318 147.93C270.724 161.078 277.658 175.461 290.806 180.055C303.954 184.649 318.337 177.714 322.931 164.566Z" fill="#A1D3E1"/>
<path d="M315.771 156.239C315.771 165.428 308.318 172.881 299.128 172.881C289.938 172.881 282.485 165.428 282.485 156.239C282.485 147.049 289.938 139.596 299.128 139.596C308.318 139.596 315.771 147.049 315.771 156.239V156.239Z" fill="#CAE0EA"/>
<path d="M306.09 156.238C306.09 160.085 302.974 163.201 299.127 163.201C295.28 163.201 292.165 160.085 292.165 156.238C292.165 152.391 295.28 149.275 299.127 149.275C302.974 149.275 306.09 152.391 306.09 156.238Z" fill="white"/>
<path d="M322.351 104.499C322.351 104.499 322.351 104.407 322.351 104.357C322.351 91.462 311.89 81.001 298.995 81.001C286.099 81.001 275.638 91.4536 275.638 104.357C275.638 104.407 275.638 104.499 275.638 104.499V104.515C275.688 111.378 278.696 117.544 283.449 121.79L298.995 156.164L314.541 121.79C319.302 117.544 322.31 111.378 322.351 104.515V104.499V104.499Z" fill="#0092BC"/>
<path d="M307.819 104.216C307.819 109.085 303.872 113.032 299.003 113.032C294.134 113.032 290.187 109.085 290.187 104.216C290.187 99.3471 294.134 95.4004 299.003 95.4004C303.872 95.4004 307.819 99.3471 307.819 104.216Z" fill="white"/>
</svg>
