<svg width="333" height="44" viewBox="0 0 333 44" fill="none" xmlns="http://www.w3.org/2000/svg">
<g clip-path="url(#clip0_474_21645)">
<path d="M37.9636 13.4001V9.48573H42.2927V7.30143C42.2744 6.38518 42.484 5.47532 42.909 4.62608C43.334 3.77684 43.9657 3.00563 44.7664 2.35837C45.5562 1.69334 46.5058 1.16649 47.5567 0.810337C48.6076 0.454184 49.7375 0.276281 50.8766 0.287619H53.5729V4.25544H51.4455C50.3522 4.22873 49.2866 4.53636 48.4605 5.11714C48.0385 5.36858 47.6964 5.69784 47.4627 6.07769C47.2289 6.45754 47.1102 6.87704 47.1165 7.30143V9.48573H53.5729V13.4001H47.1247V35.2565H42.2927V13.4001H37.9636Z" fill="#63666A"/>
<path d="M57.8445 4.18797V0.280273H62.6683V4.18797H57.8445ZM57.8445 35.2492V9.03085H62.6683V35.2558L57.8445 35.2492Z" fill="#63666A"/>
<path d="M69.9822 35.2563V9.873H74.8142V12.5449C75.6806 11.3447 76.994 10.3976 78.5661 9.83959C80.205 9.29253 81.9637 9.01988 83.7362 9.03802C85.3431 9.01977 86.9367 9.27626 88.413 9.79076C89.8893 10.3053 91.215 11.0662 92.3036 12.0239C93.4529 12.9498 94.3595 14.0542 94.9688 15.271C95.5781 16.4877 95.8776 17.7916 95.8493 19.1045V35.263H90.9925V19.0978C91.0106 18.2586 90.8116 17.4257 90.4082 16.6526C90.0049 15.8795 89.4062 15.1833 88.6507 14.609C87.9044 14.0092 87.0169 13.5369 86.0409 13.2202C85.065 12.9035 84.0205 12.7488 82.9693 12.7654C81.9047 12.7494 80.8468 12.9041 79.8562 13.2205C78.8656 13.5369 77.962 14.0088 77.1973 14.609C76.4225 15.1742 75.806 15.8672 75.3893 16.6415C74.9725 17.4157 74.7652 18.2533 74.7812 19.0978V35.2563H69.9822Z" fill="#63666A"/>
<path d="M100.442 28.2354C100.448 27.1324 100.796 26.0483 101.454 25.0829C102.113 24.1175 103.061 23.3019 104.211 22.7112C106.696 21.3467 109.591 20.5527 112.588 20.4133C114.385 20.3523 116.158 20.0591 117.841 19.545C119.49 19.0106 120.315 18.1199 120.315 16.873C120.324 16.2276 120.156 15.5885 119.824 15.0017C119.492 14.415 119.003 13.8952 118.393 13.4797C117.147 12.5737 115.524 12.0822 113.85 12.1036C112.097 12.0816 110.389 12.5539 109.018 13.4396C108.357 13.838 107.821 14.3572 107.454 14.955C107.087 15.5527 106.9 16.2122 106.907 16.8797V17.7414H102.009V16.018C102.005 14.9287 102.342 13.8563 102.988 12.9009C103.634 11.9455 104.568 11.1381 105.703 10.5539C108.088 9.21936 110.936 8.53393 113.833 8.59673C116.654 8.54327 119.417 9.24792 121.692 10.6007C122.769 11.2047 123.647 12.0128 124.251 12.9546C124.854 13.8965 125.165 14.9435 125.155 16.0047V29.1172C125.146 29.4647 125.23 29.8097 125.403 30.1282C125.575 30.4466 125.831 30.7307 126.153 30.9608C126.447 31.2052 126.8 31.3979 127.19 31.5266C127.58 31.6554 127.999 31.7174 128.42 31.7089V35.2158H126.507C125.286 35.2287 124.087 34.9499 123.06 34.4142C122.06 33.8729 121.3 33.0864 120.892 32.1698C119.869 33.3891 118.406 34.3224 116.703 34.8418C114.961 35.3911 113.105 35.6654 111.236 35.65C107.971 35.65 105.368 34.982 103.427 33.6461C102.449 32.9911 101.671 32.1621 101.153 31.2236C100.636 30.2851 100.392 29.2625 100.442 28.2354ZM105.274 28.2354C105.275 28.7833 105.444 29.3224 105.767 29.8041C106.089 30.2857 106.555 30.6947 107.121 30.9942C108.333 31.6658 109.777 32.0074 111.244 31.9694C113.548 32.0136 115.794 31.3826 117.569 30.1926C118.443 29.6665 119.149 28.9797 119.631 28.1887C120.113 27.3978 120.356 26.5255 120.339 25.6436L120.282 22.1367C118.962 23.0274 116.557 23.584 113.066 23.8067L111.722 23.8601C110.106 23.9409 108.554 24.4055 107.261 25.1961C106.65 25.5333 106.149 25.9865 105.803 26.5161C105.456 27.0458 105.275 27.636 105.274 28.2354Z" fill="#63666A"/>
<path d="M130.762 25.6505H135.594C135.548 26.4574 135.707 27.2634 136.062 28.0184C136.416 28.7734 136.959 29.4612 137.656 30.0392C138.382 30.5991 139.241 31.034 140.181 31.3176C141.12 31.6011 142.121 31.7275 143.123 31.6891C145.049 31.7672 146.964 31.4111 148.655 30.6604C149.264 30.4067 149.777 30.0245 150.14 29.5542C150.503 29.0839 150.702 28.5429 150.717 27.9885C150.717 26.461 149.747 25.2564 147.806 24.3747C145.863 23.5692 143.735 23.1006 141.556 22.9986C139.009 22.86 136.601 22.0074 134.745 20.5872C133.823 19.9383 133.085 19.1354 132.583 18.2337C132.081 17.332 131.825 16.3529 131.834 15.3636C131.789 14.3657 132.035 13.3732 132.552 12.4668C133.07 11.5604 133.843 10.7655 134.811 10.1467C136.757 8.84632 139.36 8.19391 142.62 8.18945C146.226 8.18945 149.09 8.99548 151.212 10.6075C152.303 11.3999 153.164 12.3779 153.735 13.4715C154.305 14.5651 154.57 15.7472 154.51 16.9333H149.686C149.72 16.2263 149.566 15.5216 149.235 14.867C148.903 14.2124 148.402 13.6231 147.765 13.1392C146.354 12.1426 144.522 11.6278 142.653 11.703C141.118 11.6428 139.6 11.9848 138.323 12.6783C137.8 12.9886 137.377 13.3965 137.09 13.8675C136.803 14.3384 136.66 14.8585 136.674 15.3836C136.674 16.7196 137.546 17.7349 139.288 18.4296C141.021 19.09 142.9 19.4625 144.813 19.5251C147.566 19.6629 150.192 20.5102 152.308 21.9432C153.323 22.622 154.14 23.4739 154.7 24.4381C155.261 25.4024 155.552 26.455 155.552 27.5209C155.552 28.5867 155.261 29.6394 154.7 30.6036C154.14 31.5678 153.323 32.4198 152.308 33.0985C150.148 34.5191 147.27 35.2294 143.675 35.2294C139.739 35.2294 136.614 34.3655 134.3 32.6376C133.121 31.7496 132.194 30.6651 131.584 29.4587C130.973 28.2524 130.693 26.9531 130.762 25.6505Z" fill="#0092BC"/>
<path d="M162.005 9.48547V2.01074H166.854V9.48547H171.752V12.9991H166.854V29.6185C166.866 30.073 167.094 30.5062 167.49 30.8282C167.887 31.1503 168.42 31.3366 168.981 31.3485H171.752V35.2562H167.423C166.712 35.2634 166.006 35.1553 165.348 34.9384C164.689 34.7215 164.09 34.4001 163.587 33.9931C163.084 33.5861 162.686 33.1017 162.417 32.5684C162.149 32.0351 162.014 31.4636 162.022 30.8876V12.9991H157.693V9.48547H162.005Z" fill="#0092BC"/>
<path d="M176.493 35.2564V9.48563H181.317V14.0346C182.016 12.4781 183.375 11.1735 185.152 10.354C186.92 9.46402 188.965 9.00061 191.047 9.01805H193.183V12.9257H191.047C189.714 12.9198 188.396 13.1569 187.192 13.6194C185.987 14.082 184.926 14.758 184.088 15.5977C182.247 17.2796 181.258 19.4624 181.317 21.7097V35.2631L176.493 35.2564Z" fill="#0092BC"/>
<path d="M195.236 28.2355C195.24 27.1323 195.587 26.0477 196.246 25.0821C196.905 24.1165 197.853 23.3011 199.004 22.7113C201.49 21.3468 204.385 20.5528 207.382 20.4134C209.179 20.3517 210.952 20.0585 212.635 19.545C214.284 19.0106 215.108 18.12 215.108 16.8731C215.119 16.2281 214.953 15.5892 214.622 15.0024C214.291 14.4156 213.804 13.8956 213.195 13.4797C211.949 12.5738 210.326 12.0823 208.652 12.1037C206.899 12.0817 205.191 12.554 203.82 13.4397C203.155 13.8373 202.615 14.3569 202.245 14.956C201.875 15.5551 201.686 16.2167 201.692 16.8865V17.7481H196.794V16.0248C196.791 14.9362 197.127 13.8644 197.771 12.9092C198.415 11.9539 199.347 11.1461 200.48 10.5607C202.869 9.22686 205.719 8.54155 208.619 8.60346C211.437 8.54895 214.198 9.25378 216.469 10.6074C217.549 11.2099 218.429 12.0175 219.035 12.9595C219.64 13.9016 219.951 14.9494 219.94 16.0114V29.1239C219.932 29.4708 220.016 29.815 220.187 30.1332C220.357 30.4514 220.611 30.736 220.93 30.9675C221.226 31.2115 221.581 31.4038 221.972 31.5325C222.364 31.6612 222.783 31.7235 223.206 31.7157V35.2226H221.276C220.055 35.2338 218.857 34.9552 217.83 34.421C216.836 33.8739 216.078 33.0893 215.661 32.1766C214.64 33.397 213.176 34.3306 211.472 34.8485C209.73 35.3978 207.874 35.6721 206.005 35.6568C202.751 35.6568 200.15 34.9888 198.204 33.6528C197.228 32.9958 196.453 32.1651 195.938 31.2255C195.423 30.2858 195.183 29.2626 195.236 28.2355ZM200.068 28.2355C200.067 28.7836 200.236 29.3232 200.559 29.805C200.881 30.2868 201.348 30.6957 201.915 30.9942C203.126 31.6667 204.571 32.0084 206.038 31.9695C208.339 32.0132 210.582 31.3823 212.354 30.1927C213.228 29.6666 213.935 28.9797 214.417 28.1888C214.898 27.3979 215.141 26.5255 215.125 25.6437L215.067 22.1368C213.748 23.0185 211.348 23.573 207.852 23.8067L206.508 23.8602C204.894 23.9422 203.346 24.4068 202.055 25.1962C201.444 25.5334 200.943 25.9865 200.596 26.5162C200.25 27.0459 200.069 27.6361 200.068 28.2355Z" fill="#0092BC"/>
<path d="M228.961 9.48547V2.01074H233.793V9.48547H238.691V12.9991H233.793V29.6185C233.806 30.073 234.034 30.5062 234.43 30.8282C234.826 31.1503 235.36 31.3366 235.921 31.3485H238.691V35.2562H234.362C233.651 35.2634 232.946 35.1553 232.287 34.9384C231.628 34.7215 231.03 34.4001 230.527 33.9931C230.023 33.5861 229.626 33.1017 229.357 32.5684C229.088 32.0351 228.954 31.4636 228.961 30.8876V12.9991H224.632V9.48547H228.961Z" fill="#0092BC"/>
<path d="M241.742 22.1441C241.742 18.0427 242.974 14.7629 245.437 12.3047C246.642 11.151 248.143 10.224 249.835 9.58823C251.528 8.9524 253.371 8.62305 255.237 8.62305C257.102 8.62305 258.946 8.9524 260.638 9.58823C262.331 10.224 263.832 11.151 265.037 12.3047C267.494 14.7629 268.725 18.0427 268.731 22.1441V23.48H246.574C246.574 26.1119 247.355 28.2071 248.916 29.7657C249.665 30.5375 250.626 31.1564 251.723 31.5729C252.82 31.9894 254.022 32.1917 255.233 32.1638C257.251 32.2306 259.236 31.7277 260.848 30.741C261.56 30.2892 262.148 29.7219 262.574 29.0755C263 28.4291 263.255 27.7177 263.322 26.9869H268.154C268.067 28.2073 267.668 29.3998 266.983 30.4887C266.297 31.5776 265.34 32.5393 264.171 33.3127C261.638 34.9486 258.461 35.7883 255.224 35.6774C253.349 35.7265 251.486 35.4185 249.785 34.7781C248.083 34.1377 246.591 33.1827 245.428 31.9901C242.977 29.5319 241.748 26.2499 241.742 22.1441ZM246.574 19.9597H263.825C263.733 17.8704 262.784 15.8653 261.128 14.2619C260.385 13.5935 259.476 13.0592 258.461 12.6934C257.446 12.3277 256.348 12.1387 255.237 12.1387C254.126 12.1387 253.027 12.3277 252.013 12.6934C250.998 13.0592 250.089 13.5935 249.345 14.2619C247.645 15.849 246.667 17.8598 246.574 19.9597Z" fill="#0092BC"/>
<path d="M272.136 22.1432C272.036 18.8582 273.341 15.6461 275.831 13.0519C276.933 11.7994 278.393 10.781 280.086 10.0833C281.778 9.38553 283.653 9.02902 285.552 9.04403C287.259 9.02307 288.95 9.313 290.5 9.89238C292.043 10.4152 293.339 11.3262 294.194 12.4908V9.81889H299.018V35.2423C299.035 36.5041 298.662 37.7493 297.933 38.8646C297.204 39.98 296.143 40.9299 294.845 41.6282C292.138 43.2276 288.853 44.0566 285.503 43.9862C282.479 44.0486 279.5 43.3888 276.936 42.0891C275.719 41.5047 274.692 40.694 273.939 39.724C273.186 38.7541 272.73 37.6529 272.607 36.5115H277.505C277.659 37.1691 278.003 37.7877 278.509 38.3171C279.015 38.8464 279.668 39.2714 280.415 39.5575C281.999 40.2025 283.756 40.5192 285.528 40.4793C287.646 40.5277 289.731 40.0448 291.498 39.0966C292.327 38.704 293.013 38.1407 293.487 37.4637C293.96 36.7868 294.204 36.0203 294.194 35.2423L294.136 31.7354C293.298 32.9264 292.004 33.8642 290.45 34.4073C288.904 34.9962 287.212 35.2909 285.503 35.269C283.607 35.283 281.734 34.9259 280.044 34.2282C278.355 33.5304 276.898 32.5126 275.798 31.2611C273.318 28.6536 272.025 25.4332 272.136 22.1432ZM276.96 22.1432C276.882 24.4806 277.648 26.7857 279.162 28.7762C279.805 29.6891 280.735 30.4477 281.857 30.9745C282.98 31.5014 284.255 31.7778 285.552 31.7755C288.208 31.7755 290.362 30.7757 292.017 28.7762C293.532 26.7857 294.297 24.4806 294.219 22.1432C294.306 19.8217 293.54 17.5315 292.017 15.5635C290.368 13.564 288.213 12.5643 285.552 12.5643C284.257 12.56 282.984 12.8333 281.862 13.3566C280.739 13.8798 279.808 14.6343 279.162 15.5435C277.641 17.5096 276.875 19.7972 276.96 22.1164V22.1432Z" fill="#0092BC"/>
<path d="M303.24 9.48503H308.064L318.643 30.2393L328.084 9.47168H332.916L318.899 39.6177C318.296 40.9798 317.111 42.1221 315.559 42.8374C313.975 43.6104 312.155 44.0085 310.306 43.9863H307.008V40.4794H310.306C311.055 40.4683 311.791 40.3173 312.456 40.0381C313.121 39.7588 313.698 39.3589 314.141 38.8696C315.175 37.8042 315.902 36.5649 316.268 35.2424L303.24 9.48503Z" fill="#0092BC"/>
<path d="M1.3689 0.768176C3.52105 0.574461 5.68146 0.42751 7.84186 0.313953C10.0023 0.200396 12.1544 0.106877 14.3066 0H14.389C15.4022 0.063565 16.4049 0.209014 17.3823 0.434184C17.8605 0.534382 18.3305 0.68133 18.8088 0.801567C19.2871 0.921803 19.7488 1.10217 20.2023 1.27585C22.0446 1.99276 23.697 2.99328 25.0674 4.22163C25.4225 4.52162 25.7452 4.84566 26.0321 5.19022C26.3417 5.51639 26.6175 5.86268 26.8567 6.22558L27.5906 7.32108L28.1513 8.46332L28.4317 9.04447L28.6213 9.63229L28.9924 10.8213C29.1655 11.6229 29.2397 12.4245 29.3717 13.226L29.4459 13.7003L28.9759 14.0744C27.2607 15.4571 25.5374 16.8398 23.781 18.1958L21.1506 20.1998L18.4872 22.2037C16.7144 23.5397 14.9003 24.8757 13.0862 26.1649C11.2721 27.4541 9.41681 28.75 7.52028 29.9924C9.03751 28.4427 10.6125 26.9464 12.2039 25.4568C13.7953 23.9672 15.4033 22.4976 17.0524 21.0548L19.5262 18.8839L21.9999 16.7396C23.6491 15.3035 25.356 13.9007 27.0546 12.4979L26.6671 13.3463C26.5351 12.6382 26.4527 11.9168 26.2877 11.2221L25.9827 10.1867L25.826 9.67237L25.5951 9.18476L25.1416 8.19614L24.5396 7.27432C24.343 6.96722 24.114 6.67445 23.8552 6.39926C23.623 6.10945 23.3668 5.83272 23.0884 5.57097C21.9916 4.47863 20.6414 3.57089 19.1139 2.89904L17.943 2.41141C17.5389 2.28449 17.1184 2.12417 16.7226 2.01061C15.9201 1.76793 15.0921 1.58461 14.2489 1.46288H14.3066C12.1544 1.36269 9.99402 1.28921 7.84186 1.14893C5.68971 1.00865 3.52105 0.955211 1.3689 0.768176Z" fill="#97999B"/>
<path d="M29.6107 21.5557C29.117 22.5346 28.4684 23.4574 27.6812 24.3011C26.9298 25.1146 26.1028 25.8806 25.2075 26.5923C24.3073 27.3029 23.3396 27.9551 22.3132 28.5428C21.2508 29.1607 20.0917 29.6617 18.8665 30.0324C19.3594 29.0517 20.011 28.1285 20.8042 27.2869C21.5491 26.469 22.3765 25.7027 23.278 24.9958C24.1781 24.2851 25.1459 23.633 26.1722 23.0453C27.2338 22.43 28.3897 21.9293 29.6107 21.5557Z" fill="#97999B"/>
<path d="M2.51489 35.2559C4.50017 34.8245 6.52806 34.5339 8.57557 34.3875C12.6038 34.0713 16.6604 34.0713 20.6887 34.3875C22.7358 34.5396 24.7634 34.8323 26.7493 35.2626C24.7652 35.6994 22.737 35.9923 20.6887 36.1376C18.6775 36.3009 16.6574 36.3812 14.6362 36.3781C12.6133 36.3781 10.593 36.298 8.57557 36.1376C6.52815 35.9834 4.50062 35.6884 2.51489 35.2559Z" fill="#97999B"/>
<path d="M1.36881 4.13477C1.69864 5.47073 1.88829 6.7666 2.07795 8.08252C2.2676 9.39845 2.40778 10.7144 2.49848 12.0303C2.69638 14.6622 2.76236 17.294 2.72937 19.9259L1.36881 18.8237C3.28184 18.8237 5.20586 18.8727 7.14088 18.9707L6.26682 19.2779C7.53668 18.2715 8.83952 17.2851 10.1753 16.3188C10.835 15.8245 11.5359 15.3702 12.2121 14.896C12.8882 14.4217 13.6056 13.9741 14.3477 13.56C13.8777 14.1946 13.3747 14.7958 12.8717 15.3969C12.3687 15.9981 11.8492 16.5993 11.305 17.1738C10.2413 18.3427 9.14461 19.4783 8.00669 20.5938L7.70984 20.8878H7.12438C5.21135 20.9746 3.29832 21.0147 1.35231 21.0347H0V19.9125C0 17.2807 7.05286e-06 14.6488 0.239136 12.017C0.32984 10.681 0.48651 9.3851 0.651426 8.06917C0.816342 6.75325 1.03898 5.45069 1.36881 4.13477Z" fill="#97999B"/>
</g>
<defs>
<clipPath id="clip0_474_21645">
<rect width="332.916" height="44" fill="white"/>
</clipPath>
</defs>
</svg>
