<svg width="339" height="48" viewBox="0 0 339 48" fill="none" xmlns="http://www.w3.org/2000/svg">
<g clip-path="url(#clip0_518_22715)">
<path d="M38.64 14.6176V10.3474H43.0462V7.96449C43.0276 6.96494 43.2409 5.97236 43.6735 5.04592C44.106 4.11948 44.749 3.27815 45.564 2.57206C46.3679 1.84657 47.3344 1.27182 48.404 0.883293C49.4737 0.494763 50.6236 0.300688 51.783 0.313056H54.5274V4.64158H52.3621C51.2493 4.61245 50.1647 4.94805 49.3239 5.58162C48.8943 5.85592 48.5462 6.21512 48.3083 6.6295C48.0704 7.04388 47.9496 7.50151 47.9559 7.96449V10.3474H54.5274V14.6176H47.9643V38.4609H43.0462V14.6176H38.64Z" fill="white"/>
<path d="M58.8749 4.56959V0.306641H63.7846V4.56959H58.8749ZM58.8749 38.4545V9.85272H63.7846V38.4618L58.8749 38.4545Z" fill="white"/>
<path d="M71.229 38.4622V10.7713H76.1471V13.6861C77.0289 12.3767 78.3658 11.3435 79.9658 10.7348C81.634 10.138 83.424 9.84057 85.2281 9.86037C86.8636 9.84046 88.4856 10.1203 89.9882 10.6815C91.4907 11.2428 92.8401 12.0729 93.9481 13.1177C95.1179 14.1277 96.0406 15.3326 96.6607 16.6599C97.2809 17.9873 97.5857 19.4098 97.557 20.842V38.4694H92.6136V20.8347C92.6321 19.9192 92.4295 19.0105 92.019 18.1671C91.6085 17.3238 90.9991 16.5643 90.2301 15.9378C89.4705 15.2834 88.5672 14.7682 87.5739 14.4227C86.5805 14.0772 85.5174 13.9085 84.4475 13.9265C83.364 13.9092 82.2871 14.0779 81.2789 14.4231C80.2707 14.7682 79.351 15.283 78.5726 15.9378C77.784 16.5544 77.1566 17.3104 76.7324 18.155C76.3083 18.9997 76.0973 19.9134 76.1136 20.8347V38.4622H71.229Z" fill="white"/>
<path d="M102.232 30.8033C102.237 29.6001 102.592 28.4174 103.262 27.3643C103.932 26.3111 104.897 25.4213 106.067 24.7769C108.597 23.2884 111.543 22.4222 114.594 22.2702C116.423 22.2036 118.228 21.8838 119.94 21.3228C121.619 20.7399 122.458 19.7683 122.458 18.408C122.467 17.7039 122.297 17.0067 121.959 16.3666C121.621 15.7265 121.123 15.1594 120.503 14.7062C119.234 13.7178 117.582 13.1817 115.878 13.205C114.094 13.181 112.355 13.6962 110.96 14.6625C110.287 15.0971 109.742 15.6635 109.368 16.3156C108.995 16.9677 108.804 17.6871 108.812 18.4153V19.3553H103.826V17.4753C103.823 16.2869 104.165 15.117 104.823 14.0748C105.48 13.0325 106.431 12.1517 107.586 11.5144C110.014 10.0585 112.912 9.31081 115.861 9.37932C118.732 9.32099 121.545 10.0897 123.86 11.5654C124.956 12.2244 125.85 13.1059 126.465 14.1334C127.079 15.1608 127.395 16.3031 127.385 17.4607V31.7652C127.375 32.1444 127.461 32.5208 127.637 32.8681C127.812 33.2155 128.073 33.5255 128.4 33.7765C128.699 34.0432 129.059 34.2533 129.456 34.3938C129.853 34.5342 130.28 34.6019 130.708 34.5926V38.4183H128.761C127.518 38.4323 126.298 38.1282 125.253 37.5439C124.235 36.9533 123.461 36.0953 123.046 35.0954C122.005 36.4255 120.515 37.4436 118.782 38.0103C117.009 38.6095 115.12 38.9088 113.218 38.892C109.894 38.892 107.245 38.1633 105.27 36.7059C104.275 35.9913 103.483 35.0869 102.956 34.0632C102.429 33.0394 102.181 31.9238 102.232 30.8033ZM107.15 30.8033C107.151 31.4011 107.323 31.9892 107.651 32.5146C107.98 33.04 108.453 33.4862 109.03 33.8129C110.263 34.5456 111.733 34.9182 113.226 34.8768C115.571 34.925 117.857 34.2367 119.663 32.9384C120.553 32.3645 121.272 31.6152 121.763 30.7524C122.253 29.8896 122.5 28.938 122.483 27.9759L122.425 24.1502C121.082 25.1218 118.634 25.7291 115.081 25.972L113.713 26.0303C112.067 26.1184 110.488 26.6253 109.173 27.4877C108.55 27.8556 108.04 28.3499 107.688 28.9278C107.335 29.5056 107.151 30.1494 107.15 30.8033Z" fill="white"/>
<path d="M133.092 27.982H138.01C137.963 28.8623 138.125 29.7416 138.486 30.5652C138.847 31.3888 139.399 32.1392 140.108 32.7696C140.847 33.3805 141.721 33.8549 142.678 34.1643C143.634 34.4736 144.653 34.6115 145.672 34.5696C147.633 34.6547 149.582 34.2663 151.304 33.4473C151.923 33.1706 152.445 32.7536 152.815 32.2406C153.184 31.7275 153.387 31.1374 153.402 30.5325C153.402 28.8662 152.414 27.5521 150.439 26.5902C148.462 25.7115 146.295 25.2003 144.078 25.0891C141.485 24.9378 139.034 24.0077 137.145 22.4584C136.207 21.7505 135.456 20.8746 134.945 19.891C134.434 18.9073 134.174 17.8392 134.183 16.7599C134.137 15.6713 134.387 14.5886 134.914 13.5998C135.44 12.611 136.228 11.7438 137.212 11.0687C139.193 9.65017 141.842 8.93845 145.16 8.93359C148.831 8.93359 151.746 9.8129 153.906 11.5715C155.016 12.436 155.893 13.5028 156.473 14.6958C157.054 15.8888 157.323 17.1784 157.263 18.4724H152.353C152.388 17.7011 152.231 16.9323 151.894 16.2182C151.556 15.5041 151.046 14.8612 150.397 14.3333C148.962 13.2461 147.097 12.6845 145.194 12.7666C143.632 12.7009 142.087 13.0739 140.788 13.8305C140.255 14.169 139.825 14.614 139.532 15.1278C139.24 15.6416 139.095 16.2089 139.109 16.7818C139.109 18.2392 139.996 19.3468 141.77 20.1047C143.533 20.8251 145.445 21.2314 147.393 21.2998C150.195 21.45 152.868 22.3744 155.022 23.9377C156.054 24.6781 156.886 25.6075 157.456 26.6594C158.027 27.7113 158.323 28.8597 158.323 30.0224C158.323 31.1851 158.027 32.3335 157.456 33.3854C156.886 34.4373 156.054 35.3667 155.022 36.1071C152.823 37.6568 149.894 38.4317 146.235 38.4317C142.228 38.4317 139.048 37.4892 136.692 35.6043C135.493 34.6356 134.549 33.4524 133.928 32.1365C133.306 30.8205 133.021 29.4031 133.092 27.982Z" fill="white"/>
<path d="M164.892 10.3476V2.19336H169.827V10.3476H174.812V14.1806H169.827V32.3109C169.839 32.8067 170.071 33.2793 170.474 33.6306C170.878 33.982 171.421 34.1852 171.992 34.1982H174.812V38.4612H170.406C169.682 38.469 168.964 38.3511 168.293 38.1145C167.623 37.8778 167.014 37.5272 166.502 37.0832C165.989 36.6392 165.585 36.1107 165.311 35.5289C165.037 34.9472 164.901 34.3238 164.908 33.6954V14.1806H160.502V10.3476H164.892Z" fill="white"/>
<path d="M179.638 38.4621V10.3485H184.547V15.311C185.259 13.613 186.642 12.1899 188.45 11.2958C190.25 10.3249 192.332 9.81938 194.451 9.83841H196.625V14.1013H194.451C193.094 14.0949 191.753 14.3535 190.527 14.8581C189.301 15.3627 188.221 16.1002 187.367 17.0162C185.494 18.8511 184.487 21.2323 184.547 23.6839V38.4693L179.638 38.4621Z" fill="white"/>
<path d="M198.714 30.8018C198.718 29.5983 199.072 28.4151 199.742 27.3617C200.413 26.3084 201.378 25.4188 202.55 24.7754C205.079 23.2869 208.026 22.4207 211.077 22.2686C212.905 22.2013 214.71 21.8815 216.423 21.3213C218.101 20.7383 218.941 19.7667 218.941 18.4065C218.952 17.7028 218.783 17.0058 218.446 16.3657C218.109 15.7256 217.613 15.1583 216.994 14.7046C215.725 13.7163 214.073 13.1802 212.369 13.2035C210.585 13.1795 208.846 13.6947 207.451 14.6609C206.774 15.0947 206.225 15.6616 205.848 16.3152C205.472 16.9687 205.279 17.6904 205.286 18.4211V19.3611H200.3V17.481C200.297 16.2935 200.639 15.1243 201.294 14.0822C201.95 13.0401 202.899 12.1588 204.052 11.5202C206.483 10.0651 209.384 9.31752 212.336 9.38506C215.204 9.3256 218.014 10.0945 220.326 11.5712C221.424 12.2284 222.321 13.1094 222.937 14.1371C223.553 15.1648 223.869 16.308 223.859 17.4665V31.771C223.85 32.1494 223.936 32.525 224.11 32.8721C224.283 33.2192 224.541 33.5296 224.866 33.7822C225.167 34.0484 225.528 34.2582 225.927 34.3986C226.325 34.5389 226.753 34.6069 227.182 34.5984V38.4241H225.218C223.976 38.4364 222.756 38.1324 221.71 37.5496C220.699 36.9528 219.927 36.0969 219.503 35.1012C218.464 36.4326 216.974 37.4511 215.24 38.016C213.466 38.6152 211.578 38.9145 209.675 38.8977C206.363 38.8977 203.716 38.169 201.736 36.7116C200.742 35.9948 199.953 35.0886 199.429 34.0636C198.905 33.0386 198.66 31.9223 198.714 30.8018ZM203.632 30.8018C203.632 31.3998 203.804 31.9884 204.132 32.514C204.46 33.0397 204.935 33.4856 205.512 33.8114C206.745 34.545 208.215 34.9177 209.709 34.8753C212.051 34.923 214.334 34.2346 216.138 32.9369C217.027 32.363 217.746 31.6137 218.237 30.7509C218.727 29.8881 218.974 28.9364 218.957 27.9744L218.899 24.1487C217.556 25.1106 215.114 25.7154 211.555 25.9705L210.187 26.0288C208.545 26.1182 206.968 26.6251 205.655 27.4862C205.032 27.8541 204.523 28.3484 204.17 28.9262C203.818 29.5041 203.633 30.1479 203.632 30.8018Z" fill="white"/>
<path d="M233.04 10.3476V2.19336H237.959V10.3476H242.944V14.1806H237.959V32.3109C237.971 32.8067 238.203 33.2793 238.606 33.6306C239.01 33.982 239.553 34.1852 240.124 34.1982H242.944V38.4612H238.538C237.814 38.469 237.096 38.3511 236.425 38.1145C235.755 37.8778 235.146 37.5272 234.634 37.0832C234.121 36.6392 233.717 36.1107 233.443 35.5289C233.169 34.9472 233.033 34.3238 233.04 33.6954V14.1806H228.634V10.3476H233.04Z" fill="white"/>
<path d="M246.049 24.1564C246.049 19.6822 247.302 16.1042 249.809 13.4226C251.036 12.1641 252.564 11.1528 254.286 10.4592C256.009 9.76555 257.885 9.40625 259.784 9.40625C261.683 9.40625 263.559 9.76555 265.281 10.4592C267.004 11.1528 268.532 12.1641 269.759 13.4226C272.26 16.1042 273.513 19.6822 273.519 24.1564V25.6139H250.967C250.967 28.485 251.762 30.7707 253.351 32.471C254.112 33.3129 255.091 33.9881 256.207 34.4424C257.324 34.8968 258.547 35.1175 259.78 35.0871C261.834 35.1599 263.854 34.6113 265.495 33.5349C266.22 33.0421 266.818 32.4232 267.252 31.718C267.686 31.0128 267.945 30.2368 268.013 29.4396H272.931C272.843 30.7709 272.437 32.0718 271.739 33.2597C271.041 34.4476 270.067 35.4967 268.877 36.3404C266.299 38.125 263.066 39.0411 259.771 38.9201C257.863 38.9737 255.966 38.6376 254.235 37.939C252.503 37.2404 250.984 36.1986 249.801 34.8976C247.305 32.216 246.055 28.6356 246.049 24.1564ZM250.967 21.7736H268.525C268.432 19.4942 267.466 17.3069 265.78 15.5577C265.023 14.8286 264.098 14.2457 263.065 13.8467C262.032 13.4477 260.914 13.2415 259.784 13.2415C258.653 13.2415 257.535 13.4477 256.502 13.8467C255.469 14.2457 254.544 14.8286 253.787 15.5577C252.057 17.2892 251.062 19.4828 250.967 21.7736Z" fill="white"/>
<path d="M276.985 24.1564C276.882 20.5727 278.211 17.0686 280.745 14.2386C281.867 12.8723 283.353 11.7613 285.075 11.0001C286.798 10.2389 288.707 9.85002 290.64 9.86639C292.377 9.84352 294.098 10.1598 295.675 10.7919C297.246 11.3622 298.564 12.356 299.435 13.6265V10.7117H304.345V38.4463C304.362 39.8229 303.983 41.1813 303.241 42.398C302.499 43.6147 301.419 44.651 300.098 45.4128C297.342 47.1575 293.999 48.0619 290.589 47.9851C287.512 48.0532 284.479 47.3335 281.869 45.9156C280.631 45.278 279.586 44.3936 278.819 43.3355C278.053 42.2774 277.588 41.076 277.463 39.8309H282.448C282.606 40.5483 282.956 41.2232 283.471 41.8006C283.986 42.3781 284.651 42.8417 285.411 43.1538C287.023 43.8574 288.811 44.2029 290.615 44.1594C292.771 44.2123 294.893 43.6854 296.691 42.651C297.535 42.2228 298.233 41.6082 298.715 40.8697C299.198 40.1312 299.446 39.2951 299.435 38.4463L299.377 34.6206C298.523 35.9198 297.207 36.9429 295.625 37.5354C294.051 38.1778 292.328 38.4994 290.589 38.4755C288.659 38.4907 286.753 38.1012 285.033 37.34C283.314 36.5788 281.831 35.4684 280.711 34.1032C278.188 31.2587 276.872 27.7455 276.985 24.1564ZM281.895 24.1564C281.815 26.7063 282.594 29.2209 284.135 31.3924C284.79 32.3883 285.736 33.2158 286.879 33.7906C288.022 34.3653 289.319 34.6668 290.64 34.6643C293.342 34.6643 295.535 33.5737 297.22 31.3924C298.761 29.2209 299.54 26.7063 299.46 24.1564C299.549 21.6238 298.769 19.1254 297.22 16.9786C295.541 14.7973 293.348 13.7067 290.64 13.7067C289.322 13.702 288.026 14.0002 286.883 14.571C285.741 15.1418 284.793 15.9649 284.135 16.9567C282.587 19.1015 281.807 21.5971 281.895 24.1272V24.1564Z" fill="white"/>
<path d="M308.642 10.3486H313.552L324.32 32.9895L333.929 10.334H338.847L324.58 43.2206C323.967 44.7065 322.761 45.9526 321.181 46.7329C319.569 47.5763 317.717 48.0105 315.835 47.9863H312.478V44.1606H315.835C316.597 44.1485 317.346 43.9837 318.023 43.6791C318.7 43.3745 319.286 42.9383 319.737 42.4044C320.79 41.2422 321.53 39.8902 321.903 38.4475L308.642 10.3486Z" fill="white"/>
<path d="M1.39319 0.83801C3.58369 0.626684 5.78258 0.466374 7.98147 0.342494C10.1804 0.218613 12.3709 0.116593 14.5614 0H14.6453C15.6765 0.0693436 16.697 0.228015 17.6918 0.473656C18.1786 0.582962 18.657 0.743269 19.1438 0.874436C19.6306 1.0056 20.1005 1.20237 20.5621 1.39183C22.4372 2.17393 24.1191 3.2654 25.5139 4.60542C25.8753 4.93267 26.2038 5.28618 26.4958 5.66205C26.8109 6.01788 27.0916 6.39565 27.3351 6.79154L28.082 7.98663L28.6527 9.23272L28.9381 9.86669L29.1311 10.508L29.5088 11.8051C29.685 12.6795 29.7606 13.554 29.8949 14.4284L29.9704 14.9458L29.492 15.3539C27.7463 16.8623 25.9922 18.3707 24.2046 19.85L21.5273 22.0361L18.8165 24.2222C17.012 25.6797 15.1656 27.1371 13.3192 28.5435C11.4728 29.9499 9.58448 31.3636 7.65416 32.719C9.19842 31.0284 10.8014 29.3961 12.4212 27.7711C14.041 26.146 15.6776 24.5429 17.3561 22.9689L19.8739 20.6006L22.3918 18.2614C24.0703 16.6947 25.8076 15.1644 27.5365 13.6341L27.142 14.5596C27.0078 13.7871 26.9238 13.0001 26.756 12.2423L26.4454 11.1128L26.286 10.5517L26.051 10.0197L25.5894 8.94124L24.9767 7.93562C24.7766 7.60061 24.5435 7.28122 24.2801 6.98101C24.0438 6.66485 23.783 6.36297 23.4996 6.07742C22.3833 4.88577 21.009 3.89552 19.4543 3.16259L18.2625 2.63063C17.8513 2.49217 17.4233 2.31728 17.0204 2.1934C16.2036 1.92865 15.3609 1.72867 14.5026 1.59587H14.5614C12.3709 1.48657 10.172 1.40641 7.98147 1.25338C5.79098 1.10035 3.58369 1.04205 1.39319 0.83801Z" fill="white"/>
<path d="M30.1382 23.5156C29.6356 24.5835 28.9755 25.5903 28.1743 26.5106C27.4095 27.3981 26.5678 28.2337 25.6565 29.0101C24.7403 29.7853 23.7554 30.4968 22.7107 31.1379C21.6293 31.8121 20.4496 32.3585 19.2025 32.7629C19.7042 31.6931 20.3675 30.686 21.1748 29.7679C21.9329 28.8757 22.7751 28.0396 23.6926 27.2685C24.6088 26.4932 25.5938 25.7818 26.6385 25.1407C27.7189 24.4695 28.8954 23.9232 30.1382 23.5156Z" fill="white"/>
<path d="M2.55981 38.4619C4.58046 37.9913 6.64448 37.6743 8.72846 37.5146C12.8285 37.1696 16.9573 37.1696 21.0574 37.5146C23.141 37.6804 25.2046 37.9998 27.226 38.4692C25.2065 38.9457 23.1421 39.2652 21.0574 39.4238C19.0104 39.6019 16.9543 39.6894 14.8971 39.6861C12.8381 39.6861 10.7819 39.5987 8.72846 39.4238C6.64457 39.2555 4.58092 38.9337 2.55981 38.4619Z" fill="white"/>
<path d="M1.39319 4.50977C1.7289 5.96718 1.92194 7.38086 2.11497 8.81641C2.308 10.252 2.45067 11.6875 2.54299 13.1231C2.74442 15.9942 2.81157 18.8653 2.778 21.7364L1.39319 20.534C3.3403 20.534 5.2986 20.5875 7.26809 20.6944L6.37847 21.0296C7.67095 19.9316 8.997 18.8556 10.3566 17.8014C11.028 17.2621 11.7414 16.7666 12.4296 16.2492C13.1178 15.7319 13.848 15.2436 14.6033 14.7918C14.1249 15.4841 13.613 16.1399 13.101 16.7958C12.5891 17.4516 12.0603 18.1075 11.5064 18.7341C10.4238 20.0094 9.30753 21.2482 8.14933 22.4651L7.84719 22.7858H7.25131C5.3042 22.8805 3.35709 22.9242 1.3764 22.9461H0V21.7218C0 18.8507 7.17851e-06 15.9796 0.243396 13.1085C0.335716 11.6511 0.495177 10.2374 0.663032 8.80184C0.830886 7.36629 1.05749 5.94532 1.39319 4.50977Z" fill="white"/>
</g>
<defs>
<clipPath id="clip0_518_22715">
<rect width="338.847" height="48" fill="white"/>
</clipPath>
</defs>
</svg>
