<svg width="14" height="18" viewBox="0 0 14 18" fill="none" xmlns="http://www.w3.org/2000/svg">
<path d="M3.65003 0.35002L0.860031 3.14002C0.540031 3.45002 0.76003 3.99002 1.21003 3.99002H3.00003V10C3.00003 10.55 3.45003 11 4.00003 11C4.55003 11 5.00003 10.55 5.00003 10V3.99002H6.79003C7.24003 3.99002 7.46003 3.45002 7.14003 3.14002L4.35003 0.35002C4.16003 0.16002 3.84003 0.16002 3.65003 0.35002ZM11 14.01V8.00002C11 7.45002 10.55 7.00002 10 7.00002C9.45003 7.00002 9.00003 7.45002 9.00003 8.00002V14.01H7.21003C6.76003 14.01 6.54003 14.55 6.86003 14.86L9.65003 17.64C9.85003 17.83 10.16 17.83 10.36 17.64L13.15 14.86C13.47 14.55 13.24 14.01 12.8 14.01H11Z" fill="#0092BC"/>
</svg>
