<svg width="120" height="120" viewBox="0 0 120 120" fill="none" xmlns="http://www.w3.org/2000/svg">
<g id="sentiment_dissatisfied">
<mask id="mask0_2035_12398" style="mask-type:alpha" maskUnits="userSpaceOnUse" x="0" y="0" width="120" height="120">
<rect id="Bounding box" width="120" height="120" fill="#D9D9D9"/>
</mask>
<g mask="url(#mask0_2035_12398)">
<path id="sentiment_dissatisfied_2" d="M77.0304 54.0383C78.8497 54.0383 80.3924 53.4015 81.6585 52.1279C82.9245 50.8544 83.5575 49.3079 83.5575 47.4885C83.5575 45.6692 82.9207 44.1265 81.6471 42.8605C80.3735 41.5945 78.8271 40.9615 77.0078 40.9615C75.1884 40.9615 73.6458 41.5983 72.3797 42.8719C71.1137 44.1454 70.4806 45.6918 70.4806 47.5113C70.4806 49.3306 71.1174 50.8733 72.391 52.1393C73.6646 53.4053 75.211 54.0383 77.0304 54.0383ZM42.992 54.0383C44.8113 54.0383 46.354 53.4015 47.62 52.1279C48.8861 50.8544 49.5191 49.3079 49.5191 47.4885C49.5191 45.6692 48.8823 44.1265 47.6087 42.8605C46.3352 41.5945 44.7887 40.9615 42.9694 40.9615C41.15 40.9615 39.6073 41.5983 38.3412 42.8719C37.0752 44.1454 36.4422 45.6918 36.4422 47.5113C36.4422 49.3306 37.079 50.8733 38.3526 52.1393C39.6262 53.4053 41.1727 54.0383 42.992 54.0383ZM59.9999 67.4999C54.782 67.4999 50.0127 68.9598 45.6922 71.8796C41.3717 74.7995 38.1859 78.66 36.1346 83.4613H42.7499C44.5832 80.3779 47.0207 77.9404 50.0624 76.1488C53.104 74.3571 56.4165 73.4613 59.9999 73.4613C63.5832 73.4613 66.8957 74.3571 69.9374 76.1488C72.979 77.9404 75.4165 80.3779 77.2499 83.4613H83.8651C81.8139 78.66 78.628 74.7995 74.3075 71.8796C69.987 68.9598 65.2178 67.4999 59.9999 67.4999ZM60.0082 107.5C53.4386 107.5 47.2634 106.253 41.4827 103.76C35.702 101.266 30.6736 97.8827 26.3975 93.6085C22.1213 89.3343 18.736 84.308 16.2416 78.5299C13.7472 72.7518 12.5 66.5779 12.5 60.0083C12.5 53.4386 13.7467 47.2634 16.24 41.4827C18.7333 35.702 22.1171 30.6736 26.3912 26.3975C30.6655 22.1213 35.6917 18.736 41.4699 16.2416C47.248 13.7472 53.4218 12.5 59.9915 12.5C66.5612 12.5 72.7363 13.7467 78.517 16.24C84.2978 18.7333 89.3262 22.1171 93.6022 26.3913C97.8784 30.6655 101.264 35.6917 103.758 41.4699C106.253 47.248 107.5 53.4218 107.5 59.9915C107.5 66.5612 106.253 72.7363 103.76 78.517C101.266 84.2977 97.8827 89.3262 93.6085 93.6022C89.3343 97.8784 84.308 101.264 78.5299 103.758C72.7518 106.253 66.5779 107.5 60.0082 107.5ZM59.9999 99.9999C71.1665 99.9999 80.6249 96.1249 88.3749 88.3749C96.1249 80.6249 99.9999 71.1665 99.9999 59.9999C99.9999 48.8332 96.1249 39.3749 88.3749 31.6249C80.6249 23.8749 71.1665 19.9999 59.9999 19.9999C48.8332 19.9999 39.3749 23.8749 31.6249 31.6249C23.8749 39.3749 19.9999 48.8332 19.9999 59.9999C19.9999 71.1665 23.8749 80.6249 31.6249 88.3749C39.3749 96.1249 48.8332 99.9999 59.9999 99.9999Z" fill="#EC3737"/>
</g>
</g>
</svg>
