<svg width="120" height="120" viewBox="0 0 120 120" fill="none" xmlns="http://www.w3.org/2000/svg">
<g id="task_alt">
<mask id="mask0_2035_6877" style="mask-type:alpha" maskUnits="userSpaceOnUse" x="0" y="0" width="120" height="120">
<rect id="Bounding box" width="120" height="120" fill="#D9D9D9"/>
</mask>
<g mask="url(#mask0_2035_6877)">
<path id="task_alt_2" d="M60.0082 107.5C53.4386 107.5 47.2634 106.253 41.4828 103.76C35.702 101.266 30.6736 97.8827 26.3975 93.6085C22.1213 89.3343 18.736 84.3081 16.2416 78.5299C13.7472 72.7518 12.5 66.5779 12.5 60.0083C12.5 53.4386 13.7469 47.2634 16.2406 41.4828C18.7344 35.702 22.1188 30.6736 26.3938 26.3975C30.6688 22.1213 35.6958 18.736 41.475 16.2416C47.2541 13.7472 53.429 12.5 59.9999 12.5C65.2669 12.5 70.2503 13.2917 74.9501 14.875C79.65 16.4583 83.9614 18.6667 87.8844 21.5L82.4615 27.048C79.2308 24.8237 75.7311 23.0929 71.9626 21.8556C68.1941 20.6185 64.2065 19.9999 59.9999 19.9999C48.9165 19.9999 39.479 23.8957 31.6874 31.6874C23.8957 39.479 19.9999 48.9165 19.9999 59.9999C19.9999 71.0832 23.8957 80.5207 31.6874 88.3124C39.479 96.104 48.9165 99.9999 59.9999 99.9999C71.0832 99.9999 80.5207 96.104 88.3124 88.3124C96.104 80.5207 99.9999 71.0832 99.9999 59.9999C99.9999 58.2435 99.8845 56.5064 99.6538 54.7886C99.4229 53.071 99.0768 51.401 98.6153 49.7786L104.673 43.673C105.589 46.2435 106.29 48.8878 106.774 51.6059C107.258 54.324 107.5 57.122 107.5 59.9999C107.5 66.5707 106.253 72.7457 103.76 78.5248C101.266 84.3039 97.8827 89.331 93.6085 93.606C89.3343 97.881 84.3081 101.265 78.5299 103.759C72.7518 106.253 66.5779 107.5 60.0082 107.5ZM52.9038 81.269L33.3846 61.7499L38.6538 56.4808L52.9038 70.7308L102.231 21.327L107.5 26.5961L52.9038 81.269Z" fill="#379BEC"/>
</g>
</g>
</svg>
