<svg xmlns="http://www.w3.org/2000/svg" width="119" height="120" viewBox="0 0 119 120" fill="none">
<path d="M59.0565 118.113C26.4881 118.113 0 91.6249 0 59.0565C0 26.4881 26.4881 0 59.0565 0C91.6249 0 118.113 26.4881 118.113 59.0565C118.113 91.6249 91.6249 118.113 59.0565 118.113ZM59.0565 8.03728C30.926 8.03728 8.03728 30.926 8.03728 59.0565C8.03728 87.187 30.926 110.076 59.0565 110.076C87.187 110.076 110.076 87.187 110.076 59.0565C110.076 30.926 87.187 8.03728 59.0565 8.03728Z" fill="#379BEC"/>
<path d="M27.5016 87.7112C24.8109 87.7112 22.6094 85.5097 22.6094 82.8189V76.8783C22.6094 74.7467 23.1685 72.7549 24.2518 70.9028C25.3351 69.0507 26.8726 67.618 28.7946 66.6395C32.0794 64.9622 35.7835 63.5644 39.907 62.3763C44.0305 61.2231 48.5733 60.6291 53.5354 60.6291C55.4574 60.6291 57.3444 60.7339 59.1965 60.9086C59.2314 60.9086 59.2314 60.9086 59.2663 60.9086C61.5028 61.1532 62.4463 63.8789 60.8738 65.4864L58.7771 67.583C58.218 68.1422 57.4143 68.4567 56.6105 68.3868C56.331 68.3518 56.0165 68.3518 55.7369 68.3518H53.5704C48.9926 68.3518 44.9041 68.9109 41.2698 69.9942C37.6356 71.0775 34.5954 72.3355 32.2891 73.5935C31.695 73.908 31.2407 74.3623 30.8913 74.9564C30.5418 75.5504 30.3671 76.1794 30.3671 76.8783V77.1579C30.3671 78.6955 31.6251 79.9535 33.1627 79.9535H53.6403C54.1994 79.9535 54.7235 80.1631 55.1079 80.5825L60.4894 85.9639C61.1184 86.5929 60.6641 87.6762 59.7905 87.6762H27.5016V87.7112ZM72.9996 87.2918L64.1237 78.4159C62.7608 77.053 62.7608 74.8515 64.1237 73.4887L64.5779 73.0344C65.9408 71.6716 68.1423 71.6716 69.5051 73.0344L74.9565 78.4858L92.0095 61.4328C93.3724 60.0699 95.5739 60.0699 96.9367 61.4328L97.391 61.8871C98.7538 63.2499 98.7538 65.4514 97.391 66.8143L76.9134 87.2918C75.8651 88.3751 74.0829 88.3751 72.9996 87.2918ZM53.5354 56.7851C49.2722 56.7851 45.6379 55.2825 42.6327 52.2423C39.6274 49.2021 38.0899 45.5679 38.0899 41.3396C38.0899 37.1113 39.5925 33.4421 42.6327 30.4369C45.6729 27.4316 49.3071 25.894 53.5354 25.894C57.7987 25.894 61.4329 27.3967 64.4382 30.4369C67.4783 33.477 68.981 37.1113 68.981 41.3396C68.981 45.5679 67.4783 49.2371 64.4382 52.2423C61.4329 55.2825 57.7987 56.7851 53.5354 56.7851ZM53.5354 49.0624C55.667 49.0624 57.4842 48.2936 58.9868 46.791C60.4894 45.2883 61.2582 43.4712 61.2582 41.3396C61.2582 39.208 60.4894 37.3908 58.9868 35.8882C57.4842 34.3856 55.667 33.6168 53.5354 33.6168C51.4038 33.6168 49.5867 34.3856 48.084 35.8882C46.5814 37.3908 45.8126 39.208 45.8126 41.3396C45.8126 43.4712 46.5814 45.2883 48.084 46.791C49.5867 48.3285 51.4038 49.0624 53.5354 49.0624Z" fill="#379BEC"/>
<path d="M100.326 120C97.3561 120 94.875 117.519 94.875 114.549C94.875 111.578 97.3561 109.097 100.326 109.097C103.297 109.097 105.778 111.578 105.778 114.549C105.743 117.519 103.262 120 100.326 120ZM100.326 112.312C99.1033 112.312 97.9851 113.291 97.9851 114.653C97.9851 115.876 98.9635 116.995 100.326 116.995C101.549 116.995 102.668 116.016 102.668 114.653C102.668 113.325 101.549 112.312 100.326 112.312Z" fill="#379BEC"/>
<path d="M4.01901 18.2761C6.02615 18.2761 7.65326 16.649 7.65326 14.6418C7.65326 12.6347 6.02615 11.0076 4.01901 11.0076C2.01187 11.0076 0.384766 12.6347 0.384766 14.6418C0.384766 16.649 2.01187 18.2761 4.01901 18.2761Z" fill="#379BEC"/>
<path d="M109.901 107.21C111.619 107.21 113.011 105.818 113.011 104.1C113.011 102.383 111.619 100.99 109.901 100.99C108.183 100.99 106.791 102.383 106.791 104.1C106.791 105.818 108.183 107.21 109.901 107.21Z" fill="#379BEC"/>
</svg>