<svg width="21" height="21" viewBox="0 0 21 21" fill="none" xmlns="http://www.w3.org/2000/svg">
<rect x="0.958984" y="0.76709" width="19.6644" height="19.6644" rx="5" fill="#0092BC"/>
<path d="M18.2398 6.2772C17.7143 6.50598 17.1491 6.65863 16.5528 6.73085C17.159 6.37714 17.6253 5.813 17.8442 5.14657C17.277 5.47334 16.6486 5.71344 15.98 5.83994C15.4461 5.2836 14.6847 4.93848 13.841 4.93848C12.2203 4.93848 10.9066 6.21824 10.9066 7.79628C10.9066 8.0196 10.9333 8.23706 10.9833 8.44827C8.54512 8.32802 6.38262 7.18881 4.93591 5.46007C4.68169 5.88249 4.53869 6.37714 4.53869 6.89912C4.53869 7.89115 5.05548 8.7645 5.84358 9.27907C5.36254 9.26462 4.9097 9.13305 4.51326 8.92223C4.51326 8.93082 4.51326 8.9437 4.51326 8.95581C4.51326 10.3422 5.525 11.4966 6.86604 11.7593C6.62095 11.8253 6.36196 11.862 6.09502 11.862C5.90555 11.862 5.72084 11.8409 5.54208 11.8093C5.91548 12.9423 6.99871 13.7704 8.28216 13.7949C7.27797 14.5602 6.01319 15.0185 4.63799 15.0185C4.40045 15.0185 4.16807 15.0052 3.93848 14.9779C5.23781 15.7864 6.78064 16.2604 8.43668 16.2604C13.833 16.2604 16.7852 11.905 16.7852 8.12657C16.7852 8.00281 16.7812 7.87944 16.7753 7.75763C17.3512 7.35785 17.8478 6.85344 18.2398 6.2772Z" fill="white"/>
</svg>
